<?xml version="1.0" encoding="UTF-8" standalone="no"?>
<!-- Created with Inkscape (http://www.inkscape.org/) -->

<svg
   width="188.2901mm"
   height="170.81227mm"
   viewBox="0 0 188.2901 170.81227"
   version="1.1"
   id="svg1"
   xml:space="preserve"
   inkscape:version="1.4 (e7c3feb1, 2024-10-09)"
   sodipodi:docname="devs.svg"
   inkscape:export-filename="devs.png"
   inkscape:export-xdpi="500"
   inkscape:export-ydpi="500"
   xmlns:inkscape="http://www.inkscape.org/namespaces/inkscape"
   xmlns:sodipodi="http://sodipodi.sourceforge.net/DTD/sodipodi-0.dtd"
   xmlns="http://www.w3.org/2000/svg"
   xmlns:svg="http://www.w3.org/2000/svg"><sodipodi:namedview
     id="namedview1"
     pagecolor="#ffffff"
     bordercolor="#000000"
     borderopacity="0.25"
     inkscape:showpageshadow="2"
     inkscape:pageopacity="0.0"
     inkscape:pagecheckerboard="0"
     inkscape:deskcolor="#d1d1d1"
     inkscape:document-units="mm"
     inkscape:zoom="0.4744596"
     inkscape:cx="407.83241"
     inkscape:cy="488.97735"
     inkscape:window-width="1224"
     inkscape:window-height="847"
     inkscape:window-x="217"
     inkscape:window-y="25"
     inkscape:window-maximized="0"
     inkscape:current-layer="layer1"
     inkscape:export-bgcolor="#ffffffc0" /><defs
     id="defs1" /><g
     inkscape:label="Layer 1"
     inkscape:groupmode="layer"
     id="layer1"
     transform="translate(-4.0214926,-64.794733)"><path
       id="path1"
       style="fill:#000000;fill-opacity:0;stroke:#000000;stroke-width:0.305797;stroke-dasharray:none;stroke-dashoffset:0.0611594;stroke-opacity:0.910039"
       d="M 109.57712,64.947632 A 49.441995,31.241203 0 0 0 70.106839,77.402082 49.541326,65.711083 0 0 0 53.716097,73.667626 49.541326,65.711083 0 0 0 4.1743911,139.37847 a 49.541326,65.711083 0 0 0 49.5417059,65.71084 49.541326,65.711083 0 0 0 3.304089,-0.38069 31.936858,23.465615 0 0 0 26.767051,10.75233 31.936858,23.465615 0 0 0 4.221835,-0.20887 53.422444,59.306032 0 0 0 39.904858,20.20203 53.422444,59.306032 0 0 0 50.05225,-38.66919 17.237887,51.374423 0 0 0 14.19251,-50.47126 17.237887,51.374423 0 0 0 -17.2377,-51.374402 17.237887,51.374423 0 0 0 -0.76841,0.138527 26.254618,58.11991 0 0 0 -18.61431,-17.140369 26.254618,58.11991 0 0 0 -4.71378,1.026639 49.441995,31.241203 0 0 0 -41.24737,-14.016423 z"
       inkscape:export-filename="processes.pdf"
       inkscape:export-xdpi="96"
       inkscape:export-ydpi="96" /><path
       id="path4"
       style="fill:#bf7300;fill-opacity:0.108214;stroke:#f3a700;stroke-width:0.188046;stroke-dasharray:1.12827, 0.564137;stroke-dashoffset:0.0376091;stroke-opacity:0.910039"
       d="m 146.64531,98.031226 a 32.57967,18.986696 0 0 0 -32.57992,18.986954 32.57967,18.986696 0 0 0 4.38991,9.38754 12.929823,26.6321 0.18701477 0 0 -5.03638,20.88038 12.929823,26.6321 0.18701477 0 0 6.40219,23.02754 32.57967,18.986696 0 0 0 -1.74356,6.05286 32.57967,18.986696 0 0 0 32.57992,18.98695 32.57967,18.986696 0 0 0 32.57941,-18.98695 32.57967,18.986696 0 0 0 -7.92458,-12.32122 12.929823,26.6321 0.18701477 0 0 3.1104,-8.49819 32.57967,18.986696 0 0 0 4.98161,-9.94151 32.57967,18.986696 0 0 0 -4.26744,-9.30072 12.929823,26.6321 0.18701477 0 0 -3.22203,-11.00398 32.57967,18.986696 0 0 0 3.30988,-8.2827 32.57967,18.986696 0 0 0 -32.57941,-18.986954 z" /><path
       id="path5"
       style="fill:#000ea2;fill-opacity:0.108214;stroke:#0060f3;stroke-width:0.224965;stroke-dasharray:1.34979, 0.674895;stroke-dashoffset:0.044993;stroke-opacity:0.910039"
       d="m 73.106706,85.651659 a 20.075325,14.315583 0 0 0 -2.876311,0.158647 20.075325,14.315583 0 0 0 -0.500744,0.07131 20.075325,14.315583 0 0 0 -2.331641,0.381889 20.075325,14.315583 0 0 0 -0.543636,0.131775 20.075325,14.315583 0 0 0 -2.207617,0.6196 20.075325,14.315583 0 0 0 -0.449585,0.15813 20.075325,14.315583 0 0 0 -2.179712,0.89762 20.075325,14.315583 0 0 0 -0.278536,0.132808 20.075325,14.315583 0 0 0 -2.218986,1.260388 20.075325,14.315583 0 0 0 -0.0016,0.001 20.075325,14.315583 0 0 0 -10.520288,-2.124418 20.075325,14.315583 0 0 0 -20.075261,14.315922 20.075325,14.315583 0 0 0 20.075261,14.3154 20.075325,14.315583 0 0 0 13.610022,-3.82664 20.075325,14.315583 0 0 0 2.41639,0.90744 20.075325,14.315583 0 0 0 0.03462,0.0119 20.075325,14.315583 0 0 0 2.549198,0.65732 20.075325,14.315583 0 0 0 0.04858,0.0119 20.075325,14.315583 0 0 0 2.639632,0.39997 20.075325,14.315583 0 0 0 0.06046,0.009 20.075325,14.315583 0 0 0 2.749703,0.14056 20.075325,14.315583 0 0 0 2.529561,-0.11834 20.075325,14.315583 0 0 0 0.208773,-0.0207 20.075325,14.315583 0 0 0 2.338358,-0.33177 20.075325,14.315583 0 0 0 0.206189,-0.0382 20.075325,14.315583 0 0 0 2.399337,-0.58084 20.075325,14.315583 0 0 0 5.17e-4,0 20.075325,14.315583 0 0 0 2.274796,-0.79995 20.075325,14.315583 0 0 0 0.178284,-0.0755 20.075325,14.315583 0 0 0 1.986959,-0.94671 20.075325,14.315583 0 0 0 0.164848,-0.0884 20.075325,14.315583 0 0 0 1.907377,-1.19269 20.075325,14.315583 0 0 0 5.17e-4,0 20.075325,14.315583 0 0 0 1.674316,-1.36219 20.075325,14.315583 0 0 0 0.120923,-0.11472 20.075325,14.315583 0 0 0 1.328084,-1.41645 20.075325,14.315583 0 0 0 0.106454,-0.12919 20.075325,14.315583 0 0 0 1.121895,-1.62161 20.075325,14.315583 0 0 0 0.814937,-1.71256 20.075325,14.315583 0 0 0 0.05219,-0.14521 20.075325,14.315583 0 0 0 0.466122,-1.67018 20.075325,14.315583 0 0 0 0.02842,-0.1447 20.075325,14.315583 0 0 0 0.166398,-1.806083 20.075325,14.315583 0 0 0 -0.241846,-2.192114 20.075325,14.315583 0 0 0 -0.02274,-0.0987 20.075325,14.315583 0 0 0 -0.706934,-2.09858 20.075325,14.315583 0 0 0 -0.02429,-0.05684 20.075325,14.315583 0 0 0 -1.177706,-2.027783 20.075325,14.315583 0 0 0 -0.04237,-0.05736 20.075325,14.315583 0 0 0 -1.581299,-1.840198 20.075325,14.315583 0 0 0 -0.07803,-0.077 20.075325,14.315583 0 0 0 -2.005045,-1.673799 20.075325,14.315583 0 0 0 -2.351278,-1.431954 20.075325,14.315583 0 0 0 -0.09974,-0.05116 20.075325,14.315583 0 0 0 -2.593124,-1.132747 20.075325,14.315583 0 0 0 -0.06511,-0.02481 20.075325,14.315583 0 0 0 -2.847372,-0.841292 20.075325,14.315583 0 0 0 -0.08733,-0.01912 20.075325,14.315583 0 0 0 -2.939355,-0.503328 20.075325,14.315583 0 0 0 -0.136426,-0.01602 20.075325,14.315583 0 0 0 -3.075264,-0.172599 z" /><path
       id="ellipse11"
       style="fill:#000ea2;fill-opacity:0.108214;stroke:#0060f3;stroke-width:0.205016;stroke-dasharray:1.2301, 0.61505;stroke-dashoffset:0.0410034;stroke-opacity:0.910039"
       d="m 161.29455,127.54467 a 17.705177,13.480958 0 0 0 -16.85272,9.4325 17.705177,13.480958 0 0 0 -1.72754,-0.0656 17.705177,13.480958 0 0 0 -17.70538,13.48083 17.705177,13.480958 0 0 0 17.70538,13.48083 17.705177,13.480958 0 0 0 16.8615,-9.45265 17.705177,13.480958 0 0 0 1.71876,0.0858 17.705177,13.480958 0 0 0 17.70486,-13.48083 17.705177,13.480958 0 0 0 -17.70486,-13.48083 z" /><path
       id="path11"
       style="fill:#414361;fill-opacity:0.108214;stroke:#001d48;stroke-width:0.186549;stroke-dasharray:1.11929, 0.559646;stroke-dashoffset:0.0373098;stroke-opacity:0.910039"
       d="m 116.13193,165.57542 a 25.194012,13.605622 0 0 0 -13.80743,2.2593 14.669987,19.715937 0 0 0 -5.225,-1.35238 14.669987,19.715937 0 0 0 -14.669906,19.7156 14.669987,19.715937 0 0 0 14.669906,19.71611 14.669987,19.715937 0 0 0 11.07219,-6.874 25.194012,13.605622 0 0 0 15.32775,2.80758 25.194012,13.605622 0 0 0 24.35097,-10.12548 25.194012,13.605622 0 0 0 4.53564,-7.78092 25.194012,13.605622 0 0 0 -15.58045,-12.5305 25.194012,13.605622 0 0 0 -20.67367,-5.83531 z" /><path
       id="path12"
       style="fill:#7b2727;fill-opacity:0.108214;stroke:#f80000;stroke-width:0.177631;stroke-dasharray:1.06578, 0.532892;stroke-dashoffset:0.0355263;stroke-opacity:0.910039"
       d="m 48.140214,157.42915 a 26.018847,15.938283 0 0 0 -26.018567,15.93805 26.018847,15.938283 0 0 0 26.018567,15.93856 26.018847,15.938283 0 0 0 4.749064,-0.30128 27.6833,17.602646 0 0 0 26.179281,11.99617 27.6833,17.602646 0 0 0 27.683061,-17.60254 27.6833,17.602646 0 0 0 -27.683061,-17.60255 27.6833,17.602646 0 0 0 -7.47758,0.66766 26.018847,15.938283 0 0 0 -23.450765,-9.03407 z" /><g
       id="g11"
       transform="matrix(0.32043349,0,0,0.31704649,30.048061,92.133409)"><g
         id="g1"><circle
           cx="48"
           cy="40"
           fill="#b0e3e6"
           stroke="#0e8088"
           pointer-events="all"
           id="ellipse1"
           r="20" /></g><g
         id="g2"><circle
           cx="138"
           cy="20"
           fill="#b1ddf0"
           stroke="#10739e"
           pointer-events="all"
           id="ellipse2"
           r="20" /></g><g
         id="g3"><circle
           cx="20.5"
           cy="245"
           fill="#fad7ac"
           stroke="#b46504"
           pointer-events="all"
           id="ellipse3"
           r="20" /></g><g
         id="g4"><circle
           cx="198.5"
           cy="305"
           fill="#fad9d5"
           stroke="#ae4132"
           pointer-events="all"
           id="ellipse4"
           r="20" /></g><g
         id="g5"><circle
           cx="308"
           cy="90"
           fill="#dae8fc"
           stroke="#6c8ebf"
           pointer-events="all"
           id="ellipse5"
           r="20" /></g><g
         id="g6"><circle
           cx="328"
           cy="280"
           fill="#d5e8d4"
           stroke="#82b366"
           pointer-events="all"
           id="ellipse6"
           r="20" /></g><g
         id="g7"><circle
           cx="415"
           cy="155"
           fill="#fff2cc"
           stroke="#d6b656"
           pointer-events="all"
           id="ellipse7"
           r="20" /></g><g
         id="g8"><circle
           cx="128"
           cy="115"
           fill="#b1ddf0"
           stroke="#10739e"
           pointer-events="all"
           id="ellipse8"
           r="20" /></g><g
         id="g9"><circle
           cx="338"
           cy="190"
           fill="#fad7ac"
           stroke="#b46504"
           pointer-events="all"
           id="ellipse9"
           r="20" /></g><g
         id="g10"><circle
           cx="98"
           cy="270"
           fill="#fff2cc"
           stroke="#d6b656"
           pointer-events="all"
           id="ellipse10"
           r="20" /></g></g><path
       id="ellipse14"
       style="fill:#e2ea2f;fill-opacity:0.195853;stroke:#d5c200;stroke-width:0.190369;stroke-dasharray:1.14221, 0.571106;stroke-dashoffset:0.0380738;stroke-opacity:0.910039"
       d="m 124.25701,129.42104 a 30.732617,20.991255 0 0 0 -23.52311,7.63984 20.82419,12.873028 0 0 0 -11.428757,-2.11356 20.82419,12.873028 0 0 0 -17.919319,6.33088 20.82419,12.873028 0 0 0 -6.716903,-0.69143 20.82419,12.873028 0 0 0 -20.824569,12.87363 20.82419,12.873028 0 0 0 0.07648,0.71934 20.822671,14.464965 0 0 0 -5.023466,-0.46406 20.822671,14.464965 0 0 0 -20.821985,14.46527 20.822671,14.464965 0 0 0 8.953976,11.85044 24.324668,19.502982 0 0 0 -0.03566,0.43356 24.324668,19.502982 0 0 0 24.324614,19.50321 24.324668,19.502982 0 0 0 13.01936,-3.07217 32.029688,25.415229 0 0 0 28.754834,14.34331 32.029688,25.415229 0 0 0 31.655435,-22.40225 20.82419,12.873028 0 0 0 4.50102,0.32918 20.82419,12.873028 0 0 0 20.82405,-12.87311 20.82419,12.873028 0 0 0 -6.80424,-9.51364 30.732617,20.991255 0 0 0 11.72022,-16.36696 30.732617,20.991255 0 0 0 -30.73198,-20.99148 z"
       inkscape:export-filename="ellipse14.pdf"
       inkscape:export-xdpi="96"
       inkscape:export-ydpi="96" /></g></svg>
