<?xml version="1.0" encoding="UTF-8" standalone="no"?>
<!-- Generator: Adobe Illustrator 27.5.0, SVG Export Plug-In . SVG Version: 6.00 Build 0)  -->

<svg
   version="1.1"
   x="0px"
   y="0px"
   viewBox="0 0 1280 720"
   xml:space="preserve"
   id="svg196"
   sodipodi:docname="question.svg"
   width="1280"
   height="720"
   inkscape:version="1.3.2 (091e20e, 2023-11-25)"
   xmlns:inkscape="http://www.inkscape.org/namespaces/inkscape"
   xmlns:sodipodi="http://sodipodi.sourceforge.net/DTD/sodipodi-0.dtd"
   xmlns:xlink="http://www.w3.org/1999/xlink"
   xmlns="http://www.w3.org/2000/svg"
   xmlns:svg="http://www.w3.org/2000/svg"><defs
   id="defs196" /><sodipodi:namedview
   id="namedview196"
   pagecolor="#ffffff"
   bordercolor="#000000"
   borderopacity="0.25"
   inkscape:showpageshadow="2"
   inkscape:pageopacity="0.0"
   inkscape:pagecheckerboard="0"
   inkscape:deskcolor="#d1d1d1"
   inkscape:zoom="0.48165022"
   inkscape:cx="617.66815"
   inkscape:cy="222.15292"
   inkscape:window-width="1264"
   inkscape:window-height="919"
   inkscape:window-x="244"
   inkscape:window-y="25"
   inkscape:window-maximized="0"
   inkscape:current-layer="svg196" />
<g
   id="BACKGROUND"
   transform="matrix(1.7041365,0,0,1.4400001,0.47715821,-2.5e-5)">
	<g
   id="g6">
		<defs
   id="defs1">
			<rect
   id="SVGID_1_"
   x="-0.28"
   width="750"
   height="500"
   y="0" />
		</defs>
		<clipPath
   id="SVGID_00000088097026230786210580000016981836068172393095_">
			<use
   xlink:href="#SVGID_1_"
   style="overflow:visible"
   id="use1" />
		</clipPath>
		<g
   clip-path="url(#SVGID_00000088097026230786210580000016981836068172393095_)"
   id="g5">
			<rect
   style="fill:#ffffff"
   width="750"
   height="393.43799"
   id="rect1"
   x="0"
   y="0" />
			<rect
   y="393.43799"
   style="opacity:0.58;fill:#ffa18d"
   width="750"
   height="106.562"
   id="rect2"
   x="0" />
			<g
   style="opacity:0.16"
   id="g4">
				<g
   id="g3">
					<path
   style="fill:#ff886f"
   d="m 99.535,115.757 c 11.334,-26.695 30.38,-62.952 52.184,-82.074 29.902,-26.224 59.163,-37.53 88.155,-38.278 60.547,-1.562 105.051,16.812 116.714,69.773 5.302,24.075 -2.324,41.015 -2.478,65.666 -0.154,24.652 -8.335,53.005 7.826,71.621 22.747,26.202 62.374,28.74 96.807,24.461 34.433,-4.279 69.963,-13.285 103.141,-3.127 50.148,15.354 88.791,80.782 79.622,132.42 -9.169,51.638 -35.255,105.235 -82.813,127.346 -47.557,22.111 -126.721,24.742 -180.379,25.363 l -59.003,-3.029 C 226.901,494.008 154.108,451.573 112.31,376.921 70.513,302.267 62.931,201.972 99.535,115.757 Z"
   id="path2" />
					<ellipse
   style="fill:#ff886f"
   cx="720.64502"
   cy="12.505"
   rx="71.023003"
   ry="65.053001"
   id="ellipse2" />
					<ellipse
   style="fill:#ff886f"
   cx="-24.32"
   cy="150.98801"
   rx="54.300999"
   ry="49.737"
   id="ellipse3" />
				</g>
			</g>
		</g>
	</g>
</g>
<g
   id="OBJECTS"
   transform="matrix(1.3643612,0,0,1.3643612,135.62248,24.404899)">
	<g
   id="g196">
		<g
   id="g16">
			<g
   id="g10">
				<g
   id="g7">
					<path
   style="fill:#ffd5cf"
   d="m 326.093,358.105 c -5.826,13.712 -13.381,25.83 -22.163,35.684 h -82.913 c -3.341,-3.755 -6.51,-7.851 -9.474,-12.232 -2.036,-3.004 -3.978,-6.145 -5.81,-9.41 -1.753,-3.106 -3.491,-6.304 -4.938,-9.729 -2.547,-6.042 -4.67,-14.542 -1.211,-20.767 2.807,-5.052 8.09,-5.655 12.045,-3.47 3.962,2.196 6.903,6.805 9.474,11.618 -2.131,-7.726 -3.601,-15.794 -4.356,-24.044 -0.401,-4.392 -0.598,-8.83 -0.59,-13.257 0.008,-4.29 0.118,-8.694 0.684,-12.904 0.503,-3.732 1.596,-7.419 3.719,-9.797 2.076,-2.321 4.662,-2.64 7.044,-1.149 2.618,1.638 4.686,4.757 6.628,7.692 1.989,3.004 3.852,6.179 5.598,9.49 2.877,5.451 5.385,11.288 7.516,17.41 -1.179,-9.012 -1.164,-18.331 0.055,-27.355 0.652,-4.791 1.643,-9.479 2.948,-13.974 1.179,-4.028 2.547,-8.056 4.607,-11.311 1.8,-2.845 4.277,-5.132 7.044,-4.699 2.642,0.41 4.639,3.072 6.046,6.167 1.706,3.744 2.736,8.136 3.766,12.335 1.227,4.995 2.288,10.07 3.192,15.214 1.549,8.875 2.595,17.933 3.145,27.059 1.227,-7.795 3.286,-15.305 6.101,-22.189 1.47,-3.585 3.137,-6.998 4.992,-10.196 1.753,-3.027 3.852,-6.042 6.525,-7.26 2.209,-1.001 4.631,-0.193 6.164,2.378 1.447,2.424 1.981,5.712 2.217,8.819 0.33,4.267 0.181,8.659 0.063,12.938 -0.142,4.654 -0.417,9.297 -0.826,13.916 -0.77,8.591 -2.013,17.068 -3.703,25.364 4.049,-6.349 8.931,-11.561 14.348,-15.214 4.34,-2.936 11.133,-6.645 14.655,0.33 3.619,7.181 0.136,16.125 -2.592,22.543 z"
   id="path6" />
					<path
   style="fill:#f9aa9d"
   d="m 318.828,349.213 c -2.933,2.515 -5.902,4.987 -8.892,7.433 0.449,-3.005 0.899,-6.01 1.348,-9.016 0.11,-0.732 -1.012,-1.049 -1.122,-0.309 -0.52,3.474 -1.039,6.947 -1.558,10.42 -3.742,3.042 -7.523,6.035 -11.344,8.977 l 1.472,-9.449 c 0.114,-0.733 -1.007,-1.048 -1.122,-0.309 -0.561,3.598 -1.121,7.196 -1.682,10.794 -2.86,2.188 -5.739,4.351 -8.643,6.479 0.49,-2.679 0.981,-5.358 1.471,-8.036 0.134,-0.732 -0.987,-1.046 -1.122,-0.309 -0.569,3.108 -1.138,6.216 -1.707,9.324 0,0.002 0,0.004 0,0.005 -3.056,2.224 -6.13,4.423 -9.234,6.581 -3.784,2.632 -7.608,5.206 -11.46,7.738 3.003,-7.006 5.911,-14.053 8.719,-21.138 0.009,-0.005 0.018,-0.003 0.026,-0.008 3.111,-1.91 6.222,-3.82 9.332,-5.731 0.637,-0.391 0.053,-1.398 -0.587,-1.005 -2.689,1.651 -5.378,3.303 -8.067,4.954 0.797,-2.025 1.591,-4.052 2.371,-6.084 1.433,-3.732 2.829,-7.478 4.208,-11.231 0.383,-0.1 0.754,-0.317 1.1,-0.518 0.913,-0.531 1.825,-1.063 2.738,-1.594 1.904,-1.109 3.809,-2.217 5.713,-3.326 0.647,-0.377 0.062,-1.383 -0.587,-1.005 l -4.761,2.772 c -0.793,0.462 -1.587,0.924 -2.38,1.386 -0.247,0.144 -0.772,0.535 -1.283,0.817 2.191,-6.002 4.32,-12.027 6.369,-18.079 0.18,-0.53 0.351,-1.063 0.529,-1.594 0.124,-0.014 0.249,-0.052 0.359,-0.138 2.334,-1.812 4.669,-3.624 7.004,-5.436 0.591,-0.459 -0.238,-1.277 -0.823,-0.823 -1.983,1.539 -3.966,3.079 -5.949,4.618 1.566,-4.694 3.101,-9.399 4.581,-14.121 0.225,-0.716 -0.898,-1.023 -1.122,-0.309 -1.384,4.414 -2.814,8.814 -4.272,13.203 -0.793,-2.497 -1.586,-4.994 -2.379,-7.491 -0.226,-0.711 -1.35,-0.407 -1.122,0.309 0.96,3.022 1.92,6.044 2.88,9.066 -1.756,5.241 -3.563,10.466 -5.426,15.67 -0.62,1.731 -1.267,3.452 -1.899,5.179 -0.134,-0.228 -0.203,-0.546 -0.273,-0.757 -0.144,-0.436 -0.287,-0.872 -0.43,-1.307 -0.272,-0.828 -0.545,-1.656 -0.818,-2.484 -0.588,-1.787 -1.176,-3.573 -1.764,-5.36 -0.233,-0.708 -1.357,-0.405 -1.122,0.309 l 2.022,6.144 c 0.33,1.002 0.657,2.005 0.99,3.007 0.198,0.594 0.428,1.262 0.956,1.646 -2.071,5.636 -4.183,11.257 -6.378,16.845 -0.954,-3.091 -1.909,-6.182 -2.863,-9.273 -0.22,-0.713 -1.344,-0.409 -1.122,0.309 1.1,3.562 2.2,7.125 3.3,10.687 -0.709,1.794 -1.417,3.588 -2.139,5.376 -2.098,5.196 -4.257,10.367 -6.462,15.519 -0.377,-12.546 -0.755,-25.091 -1.132,-37.637 2.422,-5.171 4.843,-10.343 7.265,-15.514 0.316,-0.674 -0.687,-1.266 -1.005,-0.587 -2.112,4.511 -4.225,9.022 -6.338,13.533 -0.011,-0.361 -0.022,-0.723 -0.033,-1.084 l -0.548,-18.237 c 2.428,-5.043 4.857,-10.086 7.285,-15.129 0.323,-0.671 -0.68,-1.262 -1.005,-0.587 -2.119,4.4 -4.237,8.799 -6.356,13.199 -0.213,-7.07 -0.425,-14.141 -0.638,-21.211 -0.008,-0.275 -0.017,-0.55 -0.025,-0.825 2.059,-3.689 4.118,-7.378 6.177,-11.067 0.365,-0.655 -0.639,-1.242 -1.005,-0.587 -1.747,3.13 -3.493,6.259 -5.24,9.389 -0.206,-6.86 -0.412,-13.719 -0.619,-20.579 -0.022,-0.747 -1.186,-0.75 -1.164,0 0.214,7.117 0.428,14.233 0.642,21.35 -2.43,-2.763 -4.86,-5.525 -7.29,-8.287 -0.496,-0.563 -1.316,0.262 -0.823,0.823 2.722,3.095 5.445,6.19 8.168,9.285 l 0.569,18.94 c 0.046,1.54 0.093,3.081 0.139,4.621 -2.61,-3.218 -5.219,-6.437 -7.829,-9.655 -0.472,-0.582 -1.291,0.246 -0.823,0.823 2.834,3.495 5.668,6.991 8.503,10.486 0.053,0.065 0.125,0.107 0.203,0.134 0.185,6.143 0.369,12.287 0.554,18.43 -2.553,-3.716 -5.106,-7.432 -7.659,-11.149 -0.421,-0.613 -1.43,-0.032 -1.005,0.587 2.91,4.235 5.819,8.47 8.728,12.705 l 0.45,14.981 c 0.212,7.049 0.424,14.098 0.636,21.146 -4.406,-8.407 -8.596,-16.926 -12.553,-25.553 0.17,-3.64 0.341,-7.28 0.511,-10.92 0.035,-0.749 -1.128,-0.747 -1.164,0 -0.134,2.868 -0.269,5.736 -0.403,8.604 -3.336,-7.37 -6.505,-14.815 -9.505,-22.328 0.55,-5.018 1.099,-10.036 1.649,-15.054 0.081,-0.743 -1.083,-0.738 -1.164,0 -0.465,4.247 -0.93,8.495 -1.396,12.742 -0.494,-1.254 -0.997,-2.504 -1.482,-3.762 -2.18,-5.657 -4.261,-11.351 -6.25,-17.078 -0.244,-0.703 -1.369,-0.401 -1.122,0.309 2.527,7.279 5.215,14.501 8.049,21.665 -3.143,-2.18 -6.286,-4.359 -9.429,-6.539 -0.617,-0.428 -1.199,0.581 -0.587,1.005 l 10.791,7.483 c 0.888,2.218 1.784,4.432 2.701,6.637 2.309,5.553 4.72,11.064 7.213,16.538 -3.09,-1.99 -6.179,-3.979 -9.269,-5.969 -0.631,-0.407 -1.215,0.6 -0.587,1.005 3.513,2.262 7.025,4.524 10.538,6.785 0.059,0.038 0.12,0.039 0.181,0.052 1.692,3.678 3.411,7.344 5.186,10.983 2.563,5.257 5.218,10.468 7.951,15.639 -8.052,-3.623 -15.931,-7.624 -23.608,-11.982 -0.004,-0.599 -0.356,-1.198 -0.618,-1.719 -0.56,-1.111 -1.119,-2.223 -1.679,-3.334 -1.076,-2.137 -2.152,-4.275 -3.229,-6.412 -0.337,-0.669 -1.341,-0.081 -1.005,0.587 0.926,1.838 1.851,3.676 2.777,5.514 0.452,0.898 0.904,1.795 1.356,2.693 0.237,0.47 0.474,0.94 0.71,1.41 0.057,0.114 0.151,0.264 0.243,0.426 -4.246,-2.443 -8.433,-4.987 -12.547,-7.647 0.005,-0.064 0.011,-0.128 -0.014,-0.201 -1.394,-4.024 -2.788,-8.049 -4.183,-12.073 -0.244,-0.703 -1.368,-0.401 -1.122,0.309 1.267,3.658 2.535,7.317 3.802,10.975 -0.641,-0.42 -1.288,-0.831 -1.926,-1.257 -3.832,-2.559 -7.6,-5.214 -11.303,-7.956 -0.602,-0.446 -1.183,0.564 -0.587,1.005 4.138,3.064 8.368,6.003 12.666,8.837 -3.234,0.414 -6.468,0.827 -9.702,1.241 -0.733,0.094 -0.742,1.259 0,1.164 3.726,-0.477 7.452,-0.953 11.178,-1.43 4.424,2.878 8.928,5.633 13.504,8.262 -0.285,0.078 -0.638,0.107 -0.834,0.148 -0.52,0.109 -1.041,0.218 -1.561,0.327 -0.993,0.208 -1.986,0.416 -2.979,0.623 -2.081,0.435 -4.162,0.871 -6.243,1.306 -0.732,0.153 -0.423,1.275 0.309,1.122 2.365,-0.495 4.729,-0.989 7.094,-1.484 1.182,-0.247 2.364,-0.495 3.547,-0.742 0.607,-0.127 1.35,-0.23 1.844,-0.644 4.13,2.346 8.312,4.602 12.557,6.735 4.1,2.06 8.252,4.017 12.447,5.876 0.04,0.386 0.427,0.735 0.843,0.463 7.472,-4.887 14.82,-9.962 22.035,-15.22 l 10.015,1.674 c 0.732,0.123 1.047,-0.999 0.309,-1.122 -3.009,-0.503 -6.018,-1.006 -9.028,-1.509 2.915,-2.138 5.798,-4.318 8.67,-6.514 3.576,0.035 7.152,0.07 10.728,0.105 0.749,0.007 0.75,-1.156 0,-1.164 -3.069,-0.03 -6.137,-0.06 -9.206,-0.09 3.284,-2.53 6.54,-5.097 9.763,-7.705 0.271,-0.219 0.538,-0.444 0.808,-0.664 0.061,0.021 0.122,0.045 0.198,0.037 3.145,-0.33 6.289,-0.66 9.434,-0.989 0.737,-0.077 0.745,-1.242 0,-1.164 -2.696,0.283 -5.392,0.565 -8.088,0.848 3.102,-2.54 6.182,-5.106 9.226,-7.715 0.576,-0.484 -0.251,-1.303 -0.816,-0.818 z"
   id="path7" />
				</g>
				<g
   id="g9">
					<path
   style="fill:#ffd5cf"
   d="m 497.435,365.347 c -4.757,11.197 -10.927,21.092 -18.098,29.139 h -67.705 c -2.729,-3.066 -5.316,-6.411 -7.736,-9.989 -1.663,-2.453 -3.249,-5.018 -4.744,-7.684 -1.432,-2.537 -2.851,-5.148 -4.032,-7.945 -2.08,-4.934 -3.814,-11.875 -0.989,-16.958 2.292,-4.126 6.606,-4.618 9.835,-2.834 3.236,1.793 5.637,5.557 7.736,9.487 -1.74,-6.309 -2.94,-12.897 -3.557,-19.634 -0.327,-3.587 -0.488,-7.211 -0.482,-10.825 0.007,-3.503 0.096,-7.099 0.559,-10.537 0.411,-3.048 1.303,-6.058 3.037,-8 1.695,-1.896 3.807,-2.156 5.752,-0.939 2.138,1.338 3.826,3.884 5.412,6.281 1.624,2.453 3.146,5.046 4.571,7.75 2.35,4.451 4.398,9.217 6.138,14.216 -0.963,-7.359 -0.95,-14.969 0.045,-22.338 0.533,-3.912 1.342,-7.74 2.408,-11.41 0.963,-3.289 2.08,-6.579 3.762,-9.236 1.47,-2.323 3.492,-4.191 5.752,-3.838 2.157,0.335 3.788,2.509 4.937,5.036 1.393,3.057 2.234,6.644 3.075,10.072 1.001,4.079 1.868,8.223 2.607,12.423 1.265,7.248 2.119,14.644 2.568,22.096 1.001,-6.365 2.684,-12.498 4.982,-18.119 1.201,-2.927 2.562,-5.715 4.077,-8.326 1.432,-2.472 3.146,-4.934 5.329,-5.928 1.804,-0.818 3.781,-0.158 5.033,1.942 1.181,1.979 1.618,4.664 1.81,7.201 0.27,3.484 0.148,7.071 0.051,10.565 -0.116,3.8 -0.34,7.591 -0.674,11.364 -0.629,7.015 -1.644,13.938 -3.024,20.711 3.306,-5.185 7.293,-9.44 11.716,-12.423 3.544,-2.397 9.091,-5.427 11.967,0.27 2.954,5.866 0.11,13.169 -2.118,18.41 z"
   id="path8" />
					<path
   style="fill:#f9aa9d"
   d="m 491.502,358.086 c -2.395,2.053 -4.82,4.072 -7.261,6.07 0.367,-2.454 0.734,-4.908 1.101,-7.362 0.09,-0.598 -0.826,-0.856 -0.916,-0.253 -0.424,2.836 -0.848,5.673 -1.272,8.509 -3.056,2.484 -6.143,4.928 -9.263,7.33 l 1.202,-7.716 c 0.093,-0.598 -0.822,-0.856 -0.916,-0.253 -0.458,2.938 -0.916,5.876 -1.373,8.814 -2.336,1.786 -4.686,3.553 -7.058,5.291 0.401,-2.188 0.801,-4.375 1.202,-6.563 0.109,-0.598 -0.806,-0.854 -0.916,-0.253 -0.465,2.538 -0.929,5.076 -1.394,7.613 0,0.001 0,0.003 0,0.004 -2.495,1.816 -5.006,3.612 -7.54,5.374 -3.09,2.149 -6.213,4.251 -9.358,6.319 2.453,-5.721 4.826,-11.475 7.12,-17.261 0.007,-0.004 0.014,-0.003 0.021,-0.007 2.54,-1.56 5.08,-3.12 7.621,-4.68 0.52,-0.319 0.043,-1.142 -0.48,-0.82 -2.196,1.349 -4.392,2.697 -6.587,4.045 0.651,-1.654 1.299,-3.309 1.937,-4.968 1.171,-3.047 2.311,-6.106 3.436,-9.171 0.313,-0.082 0.616,-0.259 0.898,-0.423 0.745,-0.434 1.49,-0.868 2.236,-1.301 1.555,-0.905 3.11,-1.811 4.665,-2.716 0.528,-0.307 0.05,-1.129 -0.48,-0.82 l -3.888,2.263 c -0.648,0.377 -1.296,0.755 -1.944,1.132 -0.202,0.117 -0.63,0.436 -1.048,0.667 1.789,-4.901 3.528,-9.821 5.201,-14.763 0.147,-0.433 0.287,-0.868 0.432,-1.302 0.101,-0.012 0.203,-0.042 0.294,-0.113 1.906,-1.48 3.813,-2.959 5.719,-4.439 0.483,-0.375 -0.194,-1.043 -0.672,-0.672 -1.619,1.257 -3.239,2.514 -4.858,3.771 1.279,-3.833 2.532,-7.675 3.741,-11.531 0.184,-0.585 -0.734,-0.835 -0.916,-0.253 -1.13,3.604 -2.297,7.197 -3.488,10.781 -0.648,-2.039 -1.295,-4.078 -1.943,-6.117 -0.184,-0.581 -1.102,-0.333 -0.916,0.253 0.784,2.468 1.568,4.935 2.351,7.403 -1.434,4.28 -2.91,8.546 -4.431,12.796 -0.506,1.414 -1.035,2.819 -1.551,4.229 -0.109,-0.186 -0.166,-0.446 -0.223,-0.618 -0.118,-0.356 -0.234,-0.712 -0.351,-1.067 -0.222,-0.676 -0.445,-1.352 -0.668,-2.028 -0.48,-1.459 -0.96,-2.918 -1.441,-4.376 -0.19,-0.578 -1.108,-0.331 -0.916,0.253 l 1.652,5.017 c 0.269,0.818 0.536,1.638 0.808,2.455 0.161,0.485 0.35,1.031 0.781,1.344 -1.691,4.602 -3.416,9.192 -5.208,13.756 -0.78,-2.524 -1.559,-5.048 -2.338,-7.573 -0.18,-0.583 -1.097,-0.334 -0.916,0.253 0.898,2.909 1.797,5.818 2.695,8.727 -0.579,1.465 -1.157,2.93 -1.747,4.39 -1.713,4.243 -3.476,8.466 -5.276,12.673 -0.308,-10.244 -0.616,-20.489 -0.924,-30.733 1.978,-4.223 3.955,-8.446 5.933,-12.668 0.258,-0.551 -0.561,-1.034 -0.821,-0.48 -1.725,3.684 -3.45,7.367 -5.175,11.051 -0.009,-0.295 -0.018,-0.59 -0.027,-0.885 L 445.6,341.592 c 1.983,-4.118 3.966,-8.236 5.949,-12.354 0.264,-0.548 -0.555,-1.031 -0.821,-0.48 -1.73,3.593 -3.46,7.185 -5.19,10.778 -0.174,-5.773 -0.347,-11.547 -0.521,-17.321 -0.007,-0.224 -0.014,-0.449 -0.02,-0.673 1.681,-3.012 3.363,-6.025 5.044,-9.037 0.298,-0.535 -0.522,-1.014 -0.821,-0.48 -1.426,2.556 -2.853,5.111 -4.279,7.667 -0.168,-5.602 -0.337,-11.203 -0.505,-16.804 -0.018,-0.61 -0.969,-0.613 -0.95,0 0.175,5.811 0.35,11.622 0.524,17.434 -1.984,-2.256 -3.969,-4.512 -5.953,-6.767 -0.405,-0.46 -1.074,0.214 -0.672,0.672 2.223,2.527 4.446,5.055 6.67,7.582 l 0.465,15.466 c 0.038,1.258 0.076,2.516 0.114,3.773 -2.131,-2.628 -4.262,-5.256 -6.393,-7.884 -0.385,-0.475 -1.054,0.201 -0.672,0.672 2.314,2.854 4.628,5.708 6.943,8.563 0.043,0.053 0.102,0.087 0.166,0.11 0.151,5.017 0.301,10.033 0.452,15.05 -2.085,-3.035 -4.169,-6.069 -6.254,-9.104 -0.344,-0.501 -1.168,-0.026 -0.821,0.479 2.376,3.458 4.752,6.917 7.127,10.375 l 0.368,12.233 c 0.173,5.756 0.346,11.512 0.519,17.268 -3.598,-6.865 -7.02,-13.821 -10.251,-20.866 0.139,-2.972 0.278,-5.945 0.418,-8.917 0.029,-0.611 -0.922,-0.61 -0.95,0 -0.11,2.342 -0.219,4.684 -0.329,7.026 -2.724,-6.018 -5.312,-12.097 -7.761,-18.232 0.449,-4.098 0.898,-8.195 1.346,-12.293 0.066,-0.607 -0.884,-0.602 -0.95,0 -0.38,3.468 -0.76,6.937 -1.14,10.405 -0.403,-1.024 -0.814,-2.045 -1.21,-3.072 -1.78,-4.619 -3.48,-9.269 -5.103,-13.946 -0.199,-0.574 -1.117,-0.327 -0.916,0.253 2.063,5.944 4.258,11.841 6.573,17.691 -2.567,-1.78 -5.133,-3.56 -7.7,-5.339 -0.504,-0.349 -0.979,0.474 -0.479,0.82 l 8.812,6.11 c 0.725,1.811 1.457,3.619 2.206,5.42 1.886,4.535 3.855,9.035 5.89,13.505 -2.523,-1.625 -5.046,-3.249 -7.569,-4.874 -0.516,-0.332 -0.993,0.49 -0.48,0.821 2.868,1.847 5.737,3.694 8.605,5.541 0.048,0.031 0.098,0.032 0.148,0.043 1.382,3.004 2.786,5.997 4.235,8.969 2.093,4.292 4.261,8.548 6.492,12.77 -6.575,-2.959 -13.009,-6.226 -19.278,-9.784 -0.003,-0.489 -0.29,-0.978 -0.504,-1.404 -0.457,-0.908 -0.914,-1.815 -1.371,-2.722 -0.879,-1.745 -1.758,-3.491 -2.636,-5.236 -0.275,-0.546 -1.095,-0.066 -0.82,0.48 0.756,1.501 1.512,3.002 2.267,4.503 0.369,0.733 0.738,1.466 1.107,2.199 0.193,0.384 0.387,0.768 0.58,1.152 0.047,0.093 0.124,0.215 0.198,0.348 -3.467,-1.995 -6.886,-4.072 -10.246,-6.245 0.004,-0.053 0.009,-0.105 -0.011,-0.164 -1.138,-3.286 -2.277,-6.573 -3.415,-9.859 -0.199,-0.574 -1.117,-0.327 -0.916,0.253 1.035,2.987 2.07,5.975 3.104,8.962 -0.523,-0.343 -1.052,-0.679 -1.572,-1.026 -3.129,-2.09 -6.206,-4.257 -9.23,-6.496 -0.492,-0.364 -0.966,0.46 -0.48,0.82 3.379,2.502 6.834,4.902 10.343,7.216 -2.641,0.338 -5.282,0.676 -7.923,1.013 -0.598,0.077 -0.606,1.028 0,0.95 3.043,-0.389 6.085,-0.778 9.128,-1.168 3.613,2.35 7.29,4.6 11.027,6.746 -0.233,0.064 -0.521,0.087 -0.681,0.121 -0.425,0.089 -0.85,0.178 -1.274,0.267 -0.811,0.17 -1.622,0.339 -2.433,0.509 -1.699,0.355 -3.398,0.711 -5.098,1.067 -0.598,0.125 -0.345,1.041 0.253,0.916 1.931,-0.404 3.862,-0.808 5.793,-1.212 0.966,-0.202 1.931,-0.404 2.896,-0.606 0.496,-0.104 1.102,-0.188 1.506,-0.526 3.372,1.916 6.787,3.758 10.254,5.5 3.348,1.682 6.739,3.28 10.164,4.798 0.032,0.315 0.349,0.6 0.689,0.378 6.101,-3.991 12.101,-8.135 17.993,-12.428 l 8.178,1.367 c 0.598,0.1 0.855,-0.815 0.253,-0.916 -2.457,-0.411 -4.915,-0.822 -7.372,-1.232 2.38,-1.746 4.735,-3.526 7.08,-5.319 2.92,0.029 5.84,0.057 8.761,0.086 0.612,0.006 0.612,-0.944 0,-0.95 -2.506,-0.025 -5.012,-0.049 -7.517,-0.074 2.682,-2.066 5.341,-4.162 7.972,-6.292 0.221,-0.179 0.439,-0.363 0.66,-0.542 0.05,0.017 0.099,0.036 0.162,0.03 2.568,-0.269 5.136,-0.538 7.704,-0.808 0.602,-0.063 0.608,-1.014 0,-0.95 -2.201,0.231 -4.403,0.462 -6.604,0.693 2.533,-2.074 5.048,-4.169 7.534,-6.3 0.458,-0.401 -0.217,-1.07 -0.679,-0.674 z"
   id="path9" />
				</g>
			</g>
			<g
   id="g15">
				<path
   style="opacity:0.42;fill:#ffa18d"
   d="m 431.689,441.744 c 0,3.848 -26.686,6.967 -59.606,6.967 -32.919,0 -59.606,-3.119 -59.606,-6.967 0,-3.848 26.686,-6.966 59.606,-6.966 32.919,0 59.606,3.119 59.606,6.966 z"
   id="path10" />
				<g
   id="g14">
					<g
   id="g12">
						<g
   id="g11">
							<path
   style="fill:#f05448"
   d="m 243.207,144.674 c 35.032,-40.536 80.071,-64.557 130.118,-64.557 66.559,0 119.105,35.031 119.105,102.591 0,65.059 -79.573,81.073 -79.573,111.1 v 27.524 h -92.58 l -0.502,-40.036 c 0,-46.041 79.57,-72.064 79.57,-99.588 0,-19.017 -19.517,-23.521 -37.033,-23.521 -21.518,0 -48.04,21.019 -65.058,41.038 z M 363.814,333.84 c 35.531,0 59.554,24.525 59.554,53.047 0,28.027 -23.02,51.548 -59.554,51.548 -32.527,0 -57.049,-25.525 -57.049,-51.548 0,-25.02 21.019,-53.047 57.049,-53.047 z"
   id="path11" />
						</g>
						<polygon
   style="fill:#f05448"
   points="308.806,199.224 297.048,187.357 297.254,199.224 "
   id="polygon11" />
					</g>
					<g
   id="g13">
						<path
   style="fill:#ff886f"
   d="m 254.758,144.674 c 35.032,-40.536 80.071,-64.557 130.118,-64.557 66.559,0 119.105,35.031 119.105,102.591 0,65.059 -79.573,81.073 -79.573,111.1 v 27.524 h -92.58 l -0.502,-40.036 c 0,-46.041 79.57,-72.064 79.57,-99.588 0,-19.017 -19.517,-23.521 -37.033,-23.521 -21.518,0 -48.04,21.019 -65.057,41.038 z M 375.365,333.84 c 35.531,0 59.554,24.525 59.554,53.047 0,28.027 -23.02,51.548 -59.554,51.548 -32.527,0 -57.049,-25.525 -57.049,-51.548 0.001,-25.02 21.019,-53.047 57.049,-53.047 z"
   id="path12" />
					</g>
				</g>
			</g>
		</g>
		<g
   id="g27">
			<path
   style="fill:none;stroke:#4376cf;stroke-miterlimit:10"
   d="m 284.072,214.725 c 0.629,-3.137 2.263,-5.711 4.865,-7.183 3.46,-1.958 7.222,-1.682 9.209,1.83 1.914,3.382 -1.752,6.555 -0.869,8.116 l 0.81,1.431 -4.812,2.723 -1.204,-2.066 c -1.354,-2.393 2.017,-6.086 1.207,-7.517 -0.559,-0.988 -1.706,-0.649 -2.617,-0.133 -1.118,0.633 -1.879,2.506 -2.175,4.047 z m 12.506,7.475 c 1.847,-1.045 3.817,-0.477 4.656,1.006 0.824,1.457 0.32,3.357 -1.58,4.431 -1.691,0.957 -3.716,0.351 -4.482,-1.002 -0.735,-1.3 -0.467,-3.375 1.406,-4.435 z"
   id="path16" />
			<path
   style="fill:#4376cf"
   d="m 134.879,285.59 c 2.237,-2.588 5.113,-4.122 8.309,-4.122 4.25,0 7.605,2.237 7.605,6.551 0,4.154 -5.081,5.177 -5.081,7.094 v 1.758 H 139.8 l -0.032,-2.556 c 0,-2.94 5.081,-4.602 5.081,-6.359 0,-1.214 -1.246,-1.502 -2.365,-1.502 -1.374,0 -3.068,1.342 -4.154,2.621 z m 7.701,13.541 c 2.269,0 3.803,1.566 3.803,3.387 0,1.79 -1.47,3.292 -3.803,3.292 -2.077,0 -3.643,-1.63 -3.643,-3.292 0,-1.597 1.342,-3.387 3.643,-3.387 z"
   id="path17" />
			<path
   style="fill:none;stroke:#4376cf;stroke-miterlimit:10"
   d="m 46.599,269.184 c -0.943,3.083 -2.838,5.501 -5.593,6.718 -3.664,1.618 -7.408,0.968 -9.051,-2.751 -1.582,-3.581 2.409,-6.398 1.679,-8.051 l -0.669,-1.515 5.096,-2.251 1.001,2.192 c 1.119,2.534 -2.628,5.902 -1.959,7.417 0.462,1.047 1.646,0.82 2.611,0.394 1.185,-0.523 2.133,-2.325 2.583,-3.841 z m -11.795,-8.74 c -1.956,0.864 -3.875,0.098 -4.568,-1.472 -0.681,-1.543 0.014,-3.397 2.025,-4.286 1.791,-0.791 3.761,0.018 4.394,1.45 0.608,1.378 0.132,3.432 -1.851,4.308 z"
   id="path18" />
			<path
   style="fill:#ff886f"
   d="m 523.053,165.631 c 2.828,-1.548 5.873,-1.955 8.694,-0.902 3.753,1.4 5.978,4.481 4.557,8.29 -1.369,3.668 -6.192,2.896 -6.824,4.589 l -0.579,1.552 -5.22,-1.948 0.814,-2.268 c 0.969,-2.596 6.003,-2.389 6.582,-3.94 0.4,-1.072 -0.605,-1.737 -1.593,-2.105 -1.213,-0.453 -3.151,0.174 -4.531,0.945 z m 2.338,14.493 c 2.003,0.748 2.842,2.636 2.241,4.244 -0.59,1.58 -2.383,2.422 -4.442,1.653 -1.834,-0.684 -2.679,-2.64 -2.132,-4.107 0.527,-1.41 2.301,-2.548 4.333,-1.79 z"
   id="path19" />
			<path
   style="fill:#4376cf"
   d="m 641.546,246.822 c -0.943,3.083 -2.838,5.501 -5.593,6.718 -3.664,1.618 -7.408,0.968 -9.051,-2.751 -1.582,-3.581 2.409,-6.398 1.679,-8.051 l -0.669,-1.515 5.096,-2.251 1.001,2.192 c 1.12,2.535 -2.628,5.902 -1.959,7.417 0.462,1.047 1.646,0.82 2.611,0.394 1.185,-0.523 2.133,-2.325 2.583,-3.841 z m -11.796,-8.74 c -1.956,0.864 -3.875,0.098 -4.568,-1.472 -0.681,-1.543 0.014,-3.397 2.025,-4.286 1.791,-0.791 3.761,0.018 4.394,1.45 0.608,1.378 0.133,3.432 -1.851,4.308 z"
   id="path20" />
			<path
   style="fill:none;stroke:#ff886f;stroke-miterlimit:10"
   d="m 240.235,67.927 c 1.439,-3.835 4.034,-6.751 7.623,-8.076 4.774,-1.763 9.47,-0.641 11.259,4.204 1.723,4.666 -3.561,7.922 -2.766,10.076 l 0.729,1.974 -6.64,2.451 -1.096,-2.858 c -1.219,-3.302 3.799,-7.276 3.07,-9.25 -0.504,-1.364 -2.023,-1.17 -3.279,-0.707 -1.543,0.57 -2.889,2.78 -3.58,4.666 z M 254.5,79.944 c 2.548,-0.941 4.921,0.182 5.676,2.228 0.742,2.01 -0.286,4.307 -2.906,5.274 -2.333,0.861 -4.768,-0.32 -5.457,-2.187 -0.663,-1.794 0.103,-4.361 2.687,-5.315 z"
   id="path21" />
			<path
   style="fill:#ff886f"
   d="m 92.612,145.151 c 1.439,-3.835 4.034,-6.751 7.623,-8.076 4.774,-1.762 9.47,-0.641 11.259,4.205 1.723,4.666 -3.561,7.922 -2.766,10.076 l 0.729,1.974 -6.64,2.452 -1.096,-2.858 c -1.219,-3.302 3.799,-7.276 3.07,-9.25 -0.503,-1.364 -2.023,-1.17 -3.279,-0.706 -1.543,0.57 -2.889,2.78 -3.58,4.666 z m 14.266,12.016 c 2.549,-0.941 4.921,0.182 5.676,2.228 0.742,2.01 -0.286,4.307 -2.907,5.274 -2.333,0.861 -4.768,-0.32 -5.457,-2.187 -0.662,-1.794 0.103,-4.36 2.688,-5.315 z"
   id="path22" />
			<path
   style="fill:none;stroke:#4376cf;stroke-miterlimit:10"
   d="m 572.383,97.535 c 0.447,-4.659 2.443,-8.648 6.009,-11.177 4.743,-3.364 10.258,-3.524 13.673,1.29 3.289,4.636 -1.572,9.799 -0.055,11.939 l 1.391,1.961 -6.597,4.68 -2.06,-2.828 c -2.327,-3.281 2.027,-9.157 0.636,-11.119 -0.961,-1.355 -2.58,-0.69 -3.828,0.196 -1.533,1.088 -2.361,3.926 -2.562,6.213 z m 19.313,9.015 c 2.532,-1.796 5.484,-1.263 6.925,0.77 1.417,1.997 0.965,4.837 -1.638,6.684 -2.318,1.644 -5.355,1.065 -6.671,-0.79 -1.264,-1.783 -1.183,-4.843 1.384,-6.664 z"
   id="path23" />
			<path
   style="fill:#ff886f"
   d="m 656.262,116.154 c 4.677,-0.194 8.901,1.237 11.894,4.424 3.981,4.239 4.894,9.68 0.591,13.721 -4.143,3.891 -9.922,-0.218 -11.834,1.578 l -1.753,1.646 -5.538,-5.896 2.519,-2.427 c 2.932,-2.754 9.349,0.757 11.101,-0.89 1.211,-1.137 0.33,-2.65 -0.717,-3.765 -1.287,-1.37 -4.212,-1.802 -6.505,-1.688 z m -6.289,20.365 c 2.125,2.263 2,5.259 0.184,6.965 -1.785,1.676 -4.659,1.617 -6.845,-0.709 -1.946,-2.071 -1.787,-5.16 -0.13,-6.716 1.594,-1.497 4.636,-1.835 6.791,0.46 z"
   id="path24" />
			<path
   style="fill:none;stroke:#4376cf;stroke-miterlimit:10"
   d="m 82.706,41.907 c 3.02,-0.678 5.938,-0.245 8.261,1.475 3.091,2.288 4.326,5.721 2.004,8.859 -2.237,3.021 -6.482,1.029 -7.514,2.423 l -0.946,1.278 -4.299,-3.183 1.353,-1.876 c 1.583,-2.138 6.172,-0.611 7.119,-1.889 0.654,-0.883 -0.098,-1.763 -0.911,-2.365 -0.999,-0.74 -2.953,-0.676 -4.432,-0.331 z M 81.016,55.9 c 1.65,1.222 1.922,3.186 0.942,4.511 -0.964,1.301 -2.841,1.602 -4.538,0.346 -1.51,-1.118 -1.772,-3.146 -0.877,-4.355 0.861,-1.162 2.8,-1.741 4.473,-0.502 z"
   id="path25" />
			<path
   style="fill:#4376cf"
   d="m 499.114,36.139 c 3.02,-0.678 5.938,-0.245 8.261,1.476 3.091,2.288 4.326,5.721 2.004,8.858 -2.237,3.021 -6.482,1.029 -7.514,2.423 l -0.946,1.278 -4.299,-3.183 1.353,-1.876 c 1.583,-2.138 6.172,-0.611 7.118,-1.889 0.654,-0.883 -0.098,-1.763 -0.911,-2.365 -0.999,-0.74 -2.953,-0.675 -4.432,-0.331 z m -1.69,13.994 c 1.65,1.221 1.922,3.186 0.942,4.511 -0.963,1.301 -2.841,1.602 -4.537,0.346 -1.51,-1.118 -1.772,-3.146 -0.877,-4.355 0.859,-1.162 2.799,-1.741 4.472,-0.502 z"
   id="path26" />
			<path
   style="fill:#4376cf"
   d="m 698.401,245.541 c 3.02,-0.678 5.938,-0.245 8.261,1.476 3.091,2.288 4.326,5.721 2.004,8.859 -2.237,3.021 -6.482,1.029 -7.514,2.423 l -0.946,1.278 -4.299,-3.183 1.353,-1.876 c 1.583,-2.138 6.172,-0.611 7.119,-1.889 0.654,-0.883 -0.098,-1.763 -0.911,-2.365 -0.999,-0.74 -2.953,-0.675 -4.432,-0.331 z m -1.689,13.993 c 1.65,1.221 1.922,3.186 0.942,4.511 -0.964,1.301 -2.841,1.602 -4.538,0.346 -1.51,-1.118 -1.771,-3.147 -0.877,-4.355 0.86,-1.161 2.8,-1.74 4.473,-0.502 z"
   id="path27" />
		</g>
		<g
   id="g195">
			<g
   id="g59">
				<g
   id="g33">
					<g
   id="g28">
						<path
   style="fill:#18252d"
   d="m 431.469,448.537 c -0.189,0 -0.38,-0.031 -0.568,-0.096 -0.909,-0.314 -1.391,-1.304 -1.077,-2.212 l 47.085,-136.238 c 0.313,-0.908 1.304,-1.391 2.212,-1.076 0.909,0.314 1.39,1.305 1.077,2.213 l -47.085,136.238 c -0.249,0.719 -0.923,1.171 -1.644,1.171 z"
   id="path28" />
					</g>
					<g
   id="g29">
						<path
   style="fill:#18252d"
   d="m 544.006,449.181 c -0.729,0 -1.408,-0.462 -1.651,-1.191 L 485.999,278.609 H 470.34 l 52.671,167.666 c 0.288,0.917 -0.222,1.893 -1.138,2.182 -0.917,0.288 -1.894,-0.221 -2.182,-1.138 L 466.31,277.39 c -0.166,-0.529 -0.07,-1.104 0.258,-1.551 0.327,-0.447 0.848,-0.71 1.402,-0.71 h 19.284 c 0.749,0 1.414,0.48 1.651,1.191 l 56.753,170.572 c 0.304,0.912 -0.19,1.897 -1.102,2.2 -0.183,0.06 -0.368,0.089 -0.55,0.089 z"
   id="path29" />
					</g>
					<rect
   x="470.526"
   y="332.17401"
   style="fill:#18252d"
   width="14.954"
   height="3.1440001"
   id="rect29" />
					<rect
   x="493.48801"
   y="358.763"
   style="fill:#4376cf"
   width="29.236"
   height="3.392"
   id="rect30" />
					<rect
   x="500.09799"
   y="378.565"
   style="fill:#4376cf"
   width="29.236"
   height="3.392"
   id="rect31" />
					<rect
   x="504.80099"
   y="394.03"
   style="fill:#4376cf"
   width="29.236"
   height="3.392"
   id="rect32" />
					<rect
   x="488.34698"
   y="338.961"
   style="fill:#4376cf"
   width="29.236"
   height="3.392"
   id="rect33" />
				</g>
				<g
   id="g58">
					<path
   style="fill:#18252d"
   d="m 531.269,379.292 -2.314,0.313 -9.019,1.224 v 0.006 l -1.728,0.232 -1.288,-9.332 -6.768,-43.492 c 5.208,-3.88 14.233,-10.88 18.913,-16.187 l -3.758,30.959 z"
   id="path33" />
					<path
   style="fill:#4376cf"
   d="m 528.954,379.606 1.125,13.258 -2.355,0.255 -0.365,-6.635 -2.146,6.913 -11.309,0.632 c 0,0 -0.325,-3.161 4.083,-5.771 l 1.949,-7.424 v -0.006 z"
   id="path34" />
					<path
   style="fill:#4376cf"
   d="m 516.787,363.21 4.564,13.02 -2.279,0.644 -2.152,-5.139 -0.481,-1.148 -0.969,7.174 -11.043,2.5 c 0,0 -0.847,-3.062 3.062,-6.368 l 0.418,-6.154 c 3.248,-0.974 6.815,-3.149 8.88,-4.529 z"
   id="path35" />
					<path
   style="fill:#18252d"
   d="m 507.907,367.739 c -1.131,0.331 -2.221,0.522 -3.196,0.481 0,0 -14.934,-35.79 -15.74,-38.157 -0.806,-2.366 16.135,-26.87 16.135,-26.87 -0.905,-2.842 -1.52,-5.84 -1.92,-8.792 -0.342,-2.482 -0.534,-4.936 -0.626,-7.227 h 2.071 l 0.162,0.006 -0.128,5.933 c 0,0 11.93,7.018 13.867,7.661 1.375,0.458 9.036,-4.767 13.369,-7.841 0,0 3.99,11.379 -2.836,19.122 -4.68,5.307 -13.705,12.307 -18.913,16.187 -2.39,1.775 -3.979,2.894 -3.979,2.894 l 6.902,17.225 5.458,13.624 c 0,0 -0.667,0.505 -1.746,1.224 -2.065,1.381 -5.632,3.556 -8.88,4.53 z"
   id="path36" />
					<g
   id="g53">
						<path
   style="fill:#4376cf"
   d="m 500.739,250.799 c -0.07,0.296 -0.11,0.563 -0.11,0.8 -0.035,3.671 1.618,5.081 1.618,5.081 l 0.69,17.33 v 0.006 c 0,0 -0.696,5.765 -0.377,13.16 0.093,2.291 0.284,4.744 0.626,7.227 l -3.254,-1.607 1.346,-18.043 -1.734,-23.738 c -2.68,0.476 -7.778,1.259 -10.167,0.853 -3.335,-0.563 -19.22,-12.493 -19.22,-12.493 l 0.232,-0.435 2.97,-5.608 0.302,-0.574 16.616,8.688 18.907,-5.724 0.046,0.006 -0.046,0.394 c -0.001,-0.002 -7.459,10.344 -8.445,14.677 z"
   id="path37" />
						<path
   style="fill:#ffffff"
   d="m 505.106,273.041 -0.313,14.14 -0.162,-0.006 h -2.071 c -0.307,-7.134 -0.313,-28.894 -0.313,-30.414 v -0.081 c 0,0 -1.653,-1.409 -1.618,-5.081 0,-0.238 0.041,-0.505 0.11,-0.8 0.986,-4.333 8.445,-14.679 8.445,-14.679 0,0 0.528,3.538 10.613,-3.642 -15.596,12.66 -14.691,40.563 -14.691,40.563 z"
   id="path38" />
						<path
   style="fill:#4376cf"
   d="m 529.36,255.189 c -0.238,7.598 -1.154,15.033 -1.154,15.033 l 6.693,20.554 c 0,0 -1.218,0.899 -2.998,2.158 -4.332,3.074 -11.994,8.299 -13.369,7.841 -1.937,-0.644 -13.867,-7.661 -13.867,-7.661 l 0.128,-5.933 0.313,-14.14 -2.169,0.969 -1.659,0.742 -16.199,7.238 c 0,0 -0.273,-0.186 -0.69,-0.534 -1.09,-0.91 -3.143,-2.946 -3.822,-5.782 -0.076,-0.302 -0.133,-0.615 -0.168,-0.94 l 20.23,-11.663 1.543,-0.887 1.125,-0.65 c 0,0 0.905,-16.396 16.5,-29.057 0,0 7.725,2.836 9.135,11.623 0.487,3.033 0.55,7.082 0.428,11.089 z"
   id="path39" />
						<path
   style="fill:#ffa18d"
   d="m 476.589,284.031 c -1.079,1.247 -2.158,2.5 -3.236,3.753 -0.157,0.18 -0.319,0.371 -0.534,0.47 -0.22,0.104 -0.505,0.104 -0.673,-0.07 -0.18,-0.186 -0.162,-0.47 -0.122,-0.725 0.133,-0.806 0.406,-1.589 0.812,-2.297 -0.592,0.406 -1.183,0.812 -1.78,1.224 -0.273,0.186 -0.65,0.371 -0.899,0.157 -0.226,-0.18 -0.168,-0.534 -0.075,-0.806 0.302,-0.858 0.812,-1.647 1.479,-2.262 -0.737,0.365 -1.467,0.737 -2.204,1.102 -0.342,0.174 -0.806,0.319 -1.05,0.029 -0.209,-0.238 -0.087,-0.609 0.058,-0.887 0.481,-0.928 1.189,-1.734 2.042,-2.331 -0.551,0.075 -1.102,0.145 -1.653,0.214 -0.226,0.029 -0.475,0.052 -0.644,-0.099 -0.186,-0.162 -0.174,-0.476 -0.035,-0.684 0.139,-0.203 0.36,-0.336 0.58,-0.452 3.747,-2.07 7.766,-3.648 11.913,-4.692 0.678,2.836 2.732,4.872 3.822,5.782 l -0.058,0.07 c -2.002,1.977 -4.965,2.922 -7.743,2.504 z"
   id="path40" />
						<path
   style="fill:#ffa18d"
   d="m 473.358,233.33 -2.97,5.608 c -0.516,-0.383 -1.027,-0.771 -1.543,-1.154 -2.732,0.534 -5.649,0.093 -8.102,-1.224 -1.299,0.574 -2.708,0.893 -4.129,0.928 -0.244,0.006 -0.499,0.006 -0.731,-0.087 -0.232,-0.093 -0.435,-0.29 -0.464,-0.539 -0.029,-0.267 0.145,-0.511 0.319,-0.713 0.487,-0.58 1.044,-1.096 1.659,-1.537 -0.725,0.029 -1.45,-0.035 -2.163,-0.18 -0.191,-0.04 -0.383,-0.087 -0.551,-0.191 -0.162,-0.104 -0.296,-0.278 -0.307,-0.475 -0.012,-0.244 0.168,-0.458 0.348,-0.626 0.481,-0.452 1.061,-0.8 1.688,-1.009 -0.383,-0.128 -0.806,-0.064 -1.218,-0.11 -0.406,-0.046 -0.852,-0.267 -0.916,-0.673 -0.046,-0.273 0.104,-0.539 0.261,-0.771 0.853,-1.241 2.082,-2.215 3.486,-2.767 -2.436,-0.76 -4.866,-1.52 -7.302,-2.279 -0.296,-0.099 -0.667,-0.302 -0.591,-0.609 0.052,-0.244 0.354,-0.319 0.603,-0.348 2.047,-0.221 4.106,0.093 6.142,0.412 2.018,0.319 4.054,0.649 5.979,1.334 3.091,1.102 5.835,3.138 7.789,5.777 l 0.11,-0.081 c 0.864,0.435 1.723,0.87 2.587,1.305 z"
   id="path41" />
						<path
   style="fill:#18252d"
   d="m 525.728,255.733 c -4.673,5.118 -9.886,9.74 -15.538,13.752 -1.575,1.118 -3.184,2.189 -4.823,3.212 -0.316,0.197 -0.025,0.699 0.293,0.501 5.883,-3.675 11.376,-7.971 16.355,-12.802 1.417,-1.375 2.791,-2.794 4.123,-4.253 0.251,-0.275 -0.158,-0.686 -0.41,-0.41 z"
   id="path42" />
						<path
   style="fill:#18252d"
   d="m 515.572,245.257 c -3.149,4.038 -6.299,8.076 -9.448,12.113 -0.902,1.156 -1.804,2.313 -2.706,3.469 -0.227,0.291 0.181,0.704 0.41,0.41 3.149,-4.038 6.298,-8.076 9.448,-12.113 0.902,-1.156 1.804,-2.313 2.706,-3.469 0.227,-0.291 -0.18,-0.704 -0.41,-0.41 z"
   id="path43" />
						<path
   style="fill:#18252d"
   d="m 506.647,262.92 c -0.807,-0.374 -1.614,-0.748 -2.421,-1.122 -0.142,-0.066 -0.312,-0.04 -0.397,0.104 -0.073,0.125 -0.039,0.331 0.104,0.397 0.807,0.374 1.614,0.748 2.422,1.122 0.142,0.066 0.312,0.04 0.397,-0.104 0.073,-0.126 0.038,-0.331 -0.105,-0.397 z"
   id="path44" />
						<path
   style="fill:#18252d"
   d="m 505.008,263.837 c -0.417,-0.51 -0.835,-1.02 -1.252,-1.529 -0.096,-0.118 -0.311,-0.108 -0.41,0 -0.115,0.125 -0.103,0.284 0,0.41 0.417,0.51 0.835,1.02 1.252,1.529 0.097,0.118 0.311,0.108 0.41,0 0.115,-0.125 0.103,-0.284 0,-0.41 z"
   id="path45" />
						<path
   style="fill:#18252d"
   d="m 526.16,240.139 c -2.219,-0.491 -4.599,-0.002 -6.426,1.358 -0.296,0.22 -0.007,0.724 0.293,0.501 1.703,-1.268 3.902,-1.76 5.979,-1.3 0.363,0.081 0.518,-0.478 0.154,-0.559 z"
   id="path46" />
						<path
   style="fill:#18252d"
   d="m 524.137,235.605 c -2.928,1.573 -5.855,3.147 -8.783,4.72 -0.185,0.099 -0.193,0.404 0,0.501 0.403,0.202 0.807,0.404 1.21,0.605 -3.514,3.168 -6.718,6.672 -9.556,10.458 -0.839,1.119 -1.644,2.263 -2.418,3.428 -0.207,0.312 0.295,0.603 0.501,0.293 2.677,-4.032 5.753,-7.792 9.178,-11.211 0.975,-0.973 1.978,-1.917 3.006,-2.833 0.134,-0.119 0.103,-0.375 -0.059,-0.456 -0.362,-0.181 -0.725,-0.363 -1.087,-0.544 l 8.3,-4.461 c 0.329,-0.176 0.037,-0.677 -0.292,-0.5 z"
   id="path47" />
						<path
   style="fill:#18252d"
   d="m 526.874,268.862 c -1.144,1.239 -2.287,2.477 -3.431,3.716 -0.253,0.274 0.156,0.685 0.41,0.41 1.144,-1.239 2.287,-2.478 3.431,-3.716 0.253,-0.273 -0.156,-0.685 -0.41,-0.41 z"
   id="path48" />
						<path
   style="fill:#18252d"
   d="m 526.861,271.774 c -0.121,-0.121 -0.288,-0.099 -0.41,0 -0.665,0.535 -1.329,1.07 -1.994,1.605 -0.122,0.098 -0.102,0.308 0,0.41 0.121,0.121 0.288,0.099 0.41,0 0.665,-0.535 1.329,-1.07 1.994,-1.606 0.122,-0.098 0.102,-0.307 0,-0.409 z"
   id="path49" />
						<path
   style="fill:#18252d"
   d="m 492.262,245.665 c -0.417,-1.019 -0.834,-2.038 -1.25,-3.057 -0.059,-0.145 -0.193,-0.248 -0.357,-0.203 -0.137,0.038 -0.262,0.211 -0.202,0.357 0.417,1.019 0.834,2.038 1.25,3.057 0.059,0.145 0.193,0.248 0.357,0.202 0.137,-0.037 0.262,-0.21 0.202,-0.356 z"
   id="path50" />
						<path
   style="fill:#18252d"
   d="m 490.195,243.483 c -0.014,-0.156 -0.123,-0.29 -0.29,-0.29 -0.146,0 -0.305,0.133 -0.29,0.29 0.072,0.788 0.145,1.576 0.217,2.365 0.014,0.156 0.123,0.29 0.29,0.29 0.146,0 0.304,-0.133 0.29,-0.29 -0.072,-0.789 -0.144,-1.577 -0.217,-2.365 z"
   id="path51" />
						<path
   style="fill:#18252d"
   d="m 465.13,234.832 c -1.774,-1.042 -3.03,-2.901 -3.307,-4.944 0.062,-0.174 -0.023,-0.4 -0.259,-0.387 -1.093,0.06 -2.191,0.008 -3.27,-0.179 -0.205,-0.036 -1.275,-0.185 -0.839,-0.561 0.165,-0.143 0.434,-0.192 0.635,-0.251 0.24,-0.069 0.482,-0.134 0.725,-0.193 2.033,-0.498 4.137,-0.632 6.219,-0.426 0.371,0.037 0.369,-0.543 0,-0.58 -1.313,-0.13 -2.636,-0.128 -3.948,0.019 -0.613,0.069 -1.223,0.164 -1.827,0.291 -0.598,0.126 -1.237,0.251 -1.802,0.486 -0.381,0.159 -0.755,0.462 -0.69,0.92 0.061,0.435 0.48,0.653 0.866,0.754 1.165,0.305 2.439,0.357 3.646,0.307 0.354,2.171 1.651,4.123 3.557,5.243 0.324,0.191 0.616,-0.31 0.294,-0.499 z"
   id="path52" />
						<path
   style="fill:#18252d"
   d="m 461.709,234.031 c -0.392,-0.234 -0.904,-0.272 -1.349,-0.275 -0.019,0 -0.039,0.002 -0.058,0.002 0.019,-0.015 0.04,-0.026 0.059,-0.041 0.37,-0.288 0.847,-0.635 0.905,-1.139 0.055,-0.47 -0.275,-0.891 -0.689,-1.075 -0.309,-0.137 -0.632,-0.151 -0.957,-0.154 0.32,-0.197 0.64,-0.394 0.96,-0.591 0.317,-0.195 0.026,-0.697 -0.293,-0.501 l -1.729,1.064 c -0.201,0.124 -0.184,0.476 0.069,0.53 0.467,0.1 0.937,0.02 1.404,0.092 0.318,0.049 0.824,0.306 0.614,0.706 -0.167,0.317 -0.576,0.577 -0.861,0.778 -0.356,0.252 -0.736,0.465 -1.131,0.647 -0.296,0.136 -0.086,0.643 0.224,0.53 0.685,-0.251 1.461,-0.361 2.181,-0.202 0.269,0.059 0.603,0.187 0.569,0.523 -0.038,0.368 -0.412,0.604 -0.688,0.791 -0.307,0.208 -0.017,0.711 0.293,0.501 0.392,-0.266 0.8,-0.565 0.934,-1.045 0.127,-0.453 -0.056,-0.902 -0.457,-1.141 z"
   id="path53" />
					</g>
					<path
   style="fill:#18252d"
   d="m 528.59,296.671 c -0.073,-0.366 -0.632,-0.211 -0.559,0.154 1.211,6.04 -2.731,11.425 -6.703,15.5 -4.275,4.386 -8.866,8.49 -13.596,12.377 -2.694,2.214 -5.453,4.349 -8.27,6.404 -0.134,0.098 -0.178,0.243 -0.104,0.397 3.96,8.206 7.92,16.413 11.88,24.619 1.11,2.301 2.221,4.603 3.331,6.904 0.162,0.336 0.662,0.042 0.501,-0.293 -3.96,-8.207 -7.92,-16.413 -11.88,-24.619 -1.073,-2.223 -2.146,-4.447 -3.218,-6.67 5.033,-3.684 9.884,-7.618 14.517,-11.795 2.321,-2.092 4.6,-4.237 6.8,-6.457 2.109,-2.128 4.143,-4.401 5.577,-7.052 1.556,-2.874 2.376,-6.219 1.724,-9.469 z"
   id="path54" />
					<g
   id="g57">
						<path
   style="fill:#ffa18d"
   d="m 517.013,222.774 c -0.423,3.433 0.597,7.023 2.784,9.703 -10.086,7.18 -10.613,3.642 -10.613,3.642 l 0.046,-0.394 0.354,-2.969 -0.006,-0.041 c -1.809,0.18 -3.694,-0.261 -5.127,-1.369 -1.467,-1.131 -2.384,-2.848 -2.97,-4.605 -1.485,-4.466 -0.986,-9.529 1.206,-13.681 0.545,-1.044 1.201,-2.024 1.96,-2.929 2.523,3.915 6.681,6.734 11.24,7.644 0.029,-0.859 0.65,-1.659 1.479,-1.902 0.829,-0.249 1.798,0.104 2.285,0.818 0.383,0.574 0.458,1.299 0.383,1.983 -0.191,1.769 -1.403,3.387 -3.021,4.1 z"
   id="path55" />
						<path
   style="fill:#18252d"
   d="m 504.648,210.131 c -0.76,0.905 -1.415,1.885 -1.96,2.929 -0.864,-0.65 -1.74,-1.334 -2.279,-2.262 -0.568,-0.968 -0.696,-2.285 -0.006,-3.172 0.626,-0.8 1.717,-1.044 2.72,-1.235 2.592,-0.487 5.191,-0.98 7.783,-1.473 2.419,-0.452 4.883,-0.916 7.325,-0.597 2.442,0.313 4.895,1.537 6.072,3.706 2.25,4.158 -0.916,9.941 1.792,13.821 1.398,2.007 3.926,2.796 6.206,3.689 2.268,0.887 4.489,2.024 6.206,3.753 1.711,1.728 2.871,4.129 2.674,6.554 -0.203,2.43 -1.978,4.767 -4.373,5.202 2.216,2.697 2.558,6.786 0.823,9.813 -1.63,2.854 -5.005,4.588 -8.27,4.332 0.122,-4.008 0.058,-8.056 -0.429,-11.089 -1.409,-8.787 -9.135,-11.623 -9.135,-11.623 -2.187,-2.68 -3.207,-6.27 -2.784,-9.703 1.618,-0.713 2.83,-2.331 3.022,-4.1 0.075,-0.684 0,-1.409 -0.383,-1.983 -0.487,-0.713 -1.456,-1.067 -2.285,-0.818 -0.829,0.244 -1.45,1.044 -1.479,1.902 -4.559,-0.912 -8.717,-3.731 -11.24,-7.646 z"
   id="path56" />
						<path
   style="fill:#18252d"
   d="m 514.358,229.529 c -1.342,1.371 -3.011,2.383 -4.849,2.934 -0.357,0.107 -0.205,0.667 0.154,0.559 1.931,-0.579 3.695,-1.642 5.105,-3.083 0.261,-0.267 -0.148,-0.677 -0.41,-0.41 z"
   id="path57" />
					</g>
				</g>
			</g>
			<g
   id="g79">
				<g
   id="g69">
					<path
   style="fill:#ffa18d"
   d="m 344.175,272.506 c 0.351,1.34 -0.956,7.714 -1.145,8.625 -3.363,-1.815 -7.233,-1.268 -8.853,-0.911 -0.364,-1.34 -1.867,-7.025 -1.886,-8.937 -0.026,-2.166 0.742,-11.812 2.732,-12.495 1.99,-0.689 0.215,6.368 0.54,10.349 0,0 1.359,-3.246 2.556,-3.122 1.197,0.13 1.717,2.199 1.717,2.199 0,0 1.405,-0.852 2.218,-0.163 0.813,0.689 0.384,2.985 0.384,2.985 0,0 1.366,0.019 1.737,1.47 z"
   id="path59" />
					<path
   style="fill:#4376cf"
   d="m 264.606,342.539 -0.319,-0.046 c 0,0 -7.773,-12.898 -8.196,-20.372 -0.423,-7.474 0.202,-35.137 4.098,-39.053 1.398,-1.411 6.361,-5.242 15.175,-6.862 2.485,-0.455 5.275,-0.735 8.384,-0.735 4.592,0 9.074,0.202 13.172,0.592 8.488,0.806 15.325,2.4 18.05,4.592 4.039,3.252 16.391,21.094 16.391,21.094 l 1.691,-20.008 c 0,0 0.124,-0.026 0.345,-0.059 1.496,-0.234 7.526,-1.021 11.682,0.95 0.13,0.065 0.26,0.13 0.384,0.195 0,0 0.663,34.656 -7.233,35.079 -7.89,0.423 -25.309,-7.955 -25.309,-7.955 l 3.857,45.681 c 0,0 -1.249,0.631 -3.324,1.594 -6.322,2.921 -20.313,8.866 -30.07,9.139 -9.633,0.267 -16.437,-4.729 -19.286,-7.311 -0.982,-0.885 -1.496,-1.49 -1.496,-1.49 z"
   id="path60" />
					<path
   style="fill:#ffffff"
   d="m 343.03,281.131 c 0.715,0.384 1.405,0.878 2.049,1.503 -4.156,-1.971 -10.186,-1.184 -11.682,-0.95 v -1.268 c 0,0 0.286,-0.091 0.781,-0.195 1.619,-0.359 5.489,-0.905 8.852,0.91 z"
   id="path61" />
					<path
   style="fill:#ffffff"
   d="m 278.623,271.868 c 3.129,-0.13 9.334,-0.111 14.16,1.743 0.124,0.059 0.26,0.111 0.39,0.15 1.424,0.585 2.712,1.333 3.746,2.303 -4.098,-0.39 -8.579,-0.592 -13.172,-0.592 -3.109,0 -5.9,0.28 -8.384,0.735 l 1.268,-4.202 c 0.002,0 0.756,-0.078 1.992,-0.137 z"
   id="path62" />
					<path
   style="fill:#18252d"
   d="m 265.507,333.397 c -0.928,-10.449 -1.857,-20.899 -2.785,-31.348 -0.263,-2.958 -0.526,-5.916 -0.788,-8.874 -0.037,-0.414 -0.688,-0.418 -0.65,0 0.936,10.541 1.873,21.082 2.809,31.623 0.263,2.958 0.526,5.916 0.788,8.874 0.003,0.034 0.016,0.06 0.026,0.089 -0.301,3.154 -0.603,6.307 -0.904,9.461 -0.04,0.417 0.611,0.414 0.65,0 l 0.918,-9.612 c 0.01,-0.093 -0.019,-0.162 -0.064,-0.213 z"
   id="path63" />
					<path
   style="fill:#18252d"
   d="m 277.964,331.185 c -3.231,0.516 -6.423,1.246 -9.557,2.187 -0.4,0.12 -0.23,0.748 0.173,0.627 3.134,-0.94 6.326,-1.671 9.557,-2.187 0.412,-0.066 0.237,-0.693 -0.173,-0.627 z"
   id="path64" />
					<path
   style="fill:#18252d"
   d="m 276.39,333.311 c -1.929,0.203 -3.857,0.405 -5.786,0.608 -0.412,0.043 -0.416,0.694 0,0.65 1.929,-0.202 3.857,-0.405 5.786,-0.608 0.412,-0.043 0.416,-0.694 0,-0.65 z"
   id="path65" />
					<path
   style="fill:#18252d"
   d="m 312.164,309.331 c -3.238,-2.772 -6.477,-5.543 -9.715,-8.315 -0.316,-0.271 -0.778,0.187 -0.46,0.46 3.238,2.772 6.477,5.543 9.715,8.315 0.316,0.271 0.778,-0.187 0.46,-0.46 z"
   id="path66" />
					<path
   style="fill:#18252d"
   d="m 309.932,310.116 c -1.711,-0.716 -3.421,-1.433 -5.132,-2.149 -0.163,-0.068 -0.356,0.074 -0.4,0.227 -0.054,0.187 0.066,0.333 0.227,0.4 1.711,0.716 3.421,1.433 5.132,2.149 0.163,0.068 0.356,-0.074 0.4,-0.227 0.053,-0.187 -0.066,-0.333 -0.227,-0.4 z"
   id="path67" />
					<path
   style="fill:#18252d"
   d="m 335.027,305.41 c -1.052,-1.178 -2.104,-2.356 -3.155,-3.534 -0.279,-0.313 -0.738,0.148 -0.46,0.46 1.052,1.178 2.104,2.356 3.155,3.534 0.279,0.313 0.738,-0.149 0.46,-0.46 z"
   id="path68" />
					<path
   style="fill:#18252d"
   d="m 335.553,302.956 c -0.905,-0.51 -1.81,-1.021 -2.716,-1.531 -0.365,-0.206 -0.693,0.356 -0.328,0.562 0.905,0.51 1.81,1.021 2.716,1.531 0.365,0.205 0.693,-0.356 0.328,-0.562 z"
   id="path69" />
				</g>
				<g
   id="g74">
					<path
   style="fill:#18252d"
   d="m 316.44,459.873 c 10.57,-2.712 16.19,0.319 15.377,2.81 -0.813,2.485 -18.082,9.854 -18.082,9.854 h -14.967 v -8.358 c 1.451,1.431 4.163,3.07 8.729,2.478 7.682,-0.995 9.041,-3.434 9.041,-3.434 z"
   id="path70" />
					<path
   style="fill:#18252d"
   d="m 316.44,459.873 0.098,3.35 c 0,0 -1.359,2.439 -9.041,3.434 -4.566,0.592 -7.278,-1.047 -8.729,-2.478 -0.995,-0.982 -1.398,-1.86 -1.398,-1.86 l -1.27,-54.429 -10.4,-32.275 -1.893,-5.874 -19.708,-4.521 h -0.091 l 0.091,-6.166 c 2.849,2.582 9.653,7.578 19.286,7.311 9.757,-0.273 23.748,-6.218 30.07,-9.139 z"
   id="path71" />
					<path
   style="fill:#18252d"
   d="m 278.844,459.574 -0.462,5.639 c -7.864,3.708 -13.302,2.081 -15.734,0.878 -0.95,-0.468 -1.444,-0.878 -1.444,-0.878 l 2.172,-57.142 0.631,-42.851 h 0.091 l 19.708,4.521 1.893,5.874 z"
   id="path72" />
					<path
   style="fill:#18252d"
   d="m 278.844,459.574 c 2.764,0.098 6.641,0.729 6.049,3.467 -0.904,4.208 -6.693,8.859 -6.693,8.859 h -15.552 v -5.809 c 2.433,1.203 7.87,2.829 15.734,-0.878 z"
   id="path73" />
					<path
   style="fill:#18252d"
   d="m 311.64,423.251 -1.987,-39.767 c -0.374,-7.478 -0.747,-14.955 -1.121,-22.432 -0.021,-0.417 -0.671,-0.419 -0.65,0 0.666,13.323 1.332,26.647 1.998,39.971 l 1.987,39.767 c 0.374,7.477 0.747,14.955 1.121,22.432 0.021,0.417 0.671,0.419 0.65,0 -0.666,-13.324 -1.332,-26.647 -1.998,-39.971 z"
   id="path74" />
				</g>
				<g
   id="g78">
					<path
   style="fill:#ffa18d"
   d="m 299.567,257.298 c 0.182,1.86 0.286,3.734 0.332,5.6 0.026,1.281 0.033,2.563 0.013,3.831 -0.02,1.47 -0.104,3.005 -0.839,4.28 -1.08,1.886 -3.844,3.421 -5.899,2.751 -0.13,-0.052 -0.26,-0.104 -0.39,-0.15 -4.826,-1.854 -11.032,-1.873 -14.16,-1.743 0.019,-1.093 -0.085,-2.185 -0.306,-3.259 4.254,-1.626 9.152,-1.509 13.308,0.351 0.891,-2.244 1.782,-4.482 2.673,-6.719 -0.793,-1.216 -1.145,-2.738 -0.885,-4.176 0.098,-0.54 0.273,-1.073 0.624,-1.49 0.351,-0.416 0.898,-0.703 1.438,-0.631 0.358,0.046 0.689,0.267 0.872,0.572 0.358,-2.186 0.715,-4.371 1.073,-6.557 0.286,-0.163 0.559,-0.338 0.82,-0.527 0.643,2.566 1.066,5.207 1.326,7.867 z"
   id="path75" />
					<path
   style="fill:#f99180"
   d="m 301.915,262.242 -2.016,0.657 c -0.046,-1.867 -0.15,-3.74 -0.332,-5.6 0.787,1.665 1.639,3.466 2.348,4.943 z"
   id="path76" />
					<path
   style="fill:#18252d"
   d="m 276.333,247.75 c 0.442,-2.602 1.984,-5.002 4.169,-6.485 2.277,-1.555 5.23,-2.081 7.909,-1.418 1.808,0.442 3.447,1.392 5.158,2.146 1.704,0.748 3.59,1.32 5.418,0.943 0.703,-0.143 1.503,-0.403 2.082,0.02 0.644,0.462 0.566,1.444 0.312,2.198 -0.566,1.704 -1.691,3.22 -3.142,4.28 -0.26,0.189 -0.533,0.364 -0.82,0.527 -0.358,2.185 -0.715,4.371 -1.073,6.557 -0.182,-0.306 -0.514,-0.527 -0.872,-0.572 -0.54,-0.072 -1.086,0.215 -1.438,0.631 -0.351,0.416 -0.527,0.95 -0.624,1.49 -0.26,1.438 0.091,2.96 0.885,4.176 -0.891,2.237 -1.782,4.475 -2.673,6.719 -4.156,-1.86 -9.054,-1.977 -13.308,-0.351 -0.293,-1.49 -0.807,-2.934 -1.516,-4.273 -0.826,-1.561 -1.919,-2.973 -2.921,-4.436 -1.002,-1.457 -1.938,-2.999 -2.407,-4.709 -0.468,-1.704 -0.429,-3.617 0.449,-5.158 0.874,-1.537 2.675,-2.591 4.412,-2.285 z"
   id="path77" />
					<path
   style="fill:#18252d"
   d="m 295.206,255.406 c -1.104,0.028 -1.805,0.96 -2.11,1.932 -0.663,2.109 0.024,4.528 1.558,6.082 0.295,0.298 0.754,-0.162 0.46,-0.46 -1.201,-1.217 -1.802,-2.981 -1.563,-4.68 0.107,-0.76 0.385,-1.708 1.123,-2.086 0.882,-0.451 1.851,0.247 1.842,1.193 -0.004,0.419 0.647,0.419 0.65,0 0.01,-1.085 -0.854,-2.009 -1.96,-1.981 z"
   id="path78" />
				</g>
			</g>
			<g
   id="g123">
				<path
   style="fill:#ffa18d"
   d="m 660.112,445.199 c 2.351,5.681 6.551,16.258 6.236,18.553 -0.315,2.295 -1.724,10.484 -2.519,10.896 -0.794,0.413 7.645,-0.66 7.853,-12.012 0.221,-12.212 -5.047,-20.932 -5.047,-20.932 z"
   id="path79" />
				<path
   style="fill:#4376cf"
   d="m 671.579,459.244 c -0.786,2.374 -1.629,9.886 -3.398,12.522 -1.039,1.548 -3.815,2.828 -3.635,1.201 -2.886,4.029 -2.571,3.693 0.193,3.144 2.764,-0.551 6.355,-1.852 6.869,-10.462 0.893,3.431 0.573,6.865 1.171,6.631 0.6,-0.232 1.131,-0.356 1.131,-0.356 -1.794,-7.7 1.337,-10.549 -2.331,-12.68 z"
   id="path80" />
				<path
   style="fill:#ffa18d"
   d="m 678.23,447.25 c -1.272,4.18 -2.044,15.356 -0.318,17.719 1.726,2.362 0.227,2.181 -2.862,6.361 -3.089,4.18 -0.88,6.904 -6.633,7.178 -2.544,0.121 -2.711,0.936 -0.727,-3.089 6.3,-12.781 2.544,-18.991 1.363,-27.169 -0.791,-5.471 9.177,-1 9.177,-1 z"
   id="path81" />
				<g
   id="g82">
					<path
   style="fill:#18252d"
   d="m 669.281,447.91 c 0.706,3.198 0.932,6.459 1.508,9.678 0.479,2.677 1.172,5.739 0.4,8.416 -0.129,0.449 -0.831,0.258 -0.701,-0.193 0.79,-2.742 -0.028,-5.948 -0.516,-8.674 -0.538,-3.004 -0.734,-6.047 -1.392,-9.033 -0.1,-0.457 0.6,-0.652 0.701,-0.194 z"
   id="path82" />
				</g>
				<path
   style="fill:#18252d"
   d="m 646.668,411.388 c 2.544,6.663 6.664,21.929 11.631,34.408 1.332,0.485 4.12,0.484 7.512,-1.333 0,0 -0.121,1.817 0.605,4.846 1.333,0.363 7.391,1.454 13.206,-0.848 0,0 1.817,-6.179 2.786,-20.595 0.969,-14.416 -1.575,-11.147 2.544,-31.622 4.12,-20.475 1.817,-28.835 0.606,-35.377 0,0 -2.029,-2.484 -5.785,-6.845 -12.903,10.177 -25.716,2.727 -25.716,2.727 0,0 -0.484,-0.606 -1.09,2.059 -0.243,7.633 -4.604,24.837 -6.421,33.56 -1.816,8.723 -2.422,12.357 0.122,19.02 z m 13.479,-8.844 c -0.091,-3.635 5.361,-11.903 6.997,-19.173 0.545,6.27 -0.364,21.899 0,30.077 0.363,8.178 -0.364,17.9 -0.364,17.9 -1.635,-6.905 -6.542,-25.17 -6.633,-28.804 z"
   id="path83" />
				<path
   style="fill:#18252d"
   d="m 678.502,298.049 c 3.816,2.726 6.906,6.179 5.452,16.538 -8.269,1.272 -10.177,-0.182 -10.177,-0.182 l 1.999,-16.265 z"
   id="path84" />
				<path
   style="fill:#ffa18d"
   d="m 674.534,275.938 c -4.483,-4.482 -21.324,-2.787 -21.929,6.179 0,8.239 1.09,7.512 1.575,12.6 0.485,5.089 4.846,9.935 11.025,9.087 0,4.119 -2.06,8.844 -2.06,8.844 l -4.604,0.363 c 0,0 -4.967,16.477 5.088,17.083 10.056,0.606 11.691,-5.451 12.903,-16.597 -0.303,-4.301 -0.727,-14.599 -0.727,-14.599 8.542,-1.242 8.148,-12.388 1.151,-6.724 -1.21,-12.48 -2.422,-16.236 -2.422,-16.236 z"
   id="path85" />
				<path
   style="fill:#ffffff"
   d="m 672.323,326.58 c -2.726,3.089 -12.328,3.453 -14.085,-2.725 -0.636,15.084 -2.362,32.802 -3.179,33.71 6.542,2.272 15.629,2.999 19.899,-0.363 -0.363,-8.814 -2.816,-26.26 -2.635,-30.622 z"
   id="path86" />
				<path
   style="fill:#4376cf"
   d="m 662.359,312.709 c -1.272,2.726 -3.665,18.596 -3.665,26.501 0,7.905 -1,19.809 -5.27,27.078 -4.18,-0.818 -8.814,-1.636 -8.814,-1.999 -0.091,-2.453 4.18,-15.175 4.18,-15.175 -3.18,-0.182 -5.089,-4.725 -4.634,-12.358 0.454,-7.633 3.907,-21.081 4.089,-21.626 0.182,-0.545 0.818,-2.726 6.906,-2.181 0.181,-1.452 7.268,-1.391 7.208,-0.24 z"
   id="path87" />
				<path
   style="fill:#ffa18d"
   d="m 671.869,332.274 c -2.12,0.061 -7.269,0.909 -7.269,0.909 l -0.591,6.573 8.89,-1.968 z"
   id="path88" />
				<g
   id="g89">
					<path
   style="fill:#18252d"
   d="m 671.521,301.093 c -1.789,1.485 -3.947,2.552 -6.219,3.061 -0.456,0.103 -0.651,-0.598 -0.193,-0.701 2.147,-0.482 4.204,-1.469 5.898,-2.875 0.357,-0.297 0.874,0.215 0.514,0.515 z"
   id="path89" />
				</g>
				<path
   style="fill:#18252d"
   d="m 680.572,290.516 c 5.179,-5.634 1.565,-15.184 -4.341,-18.637 -5.906,-3.453 -15.901,-2.09 -19.536,2.635 -4.998,3.725 -6.133,5.634 -6.133,11.631 0,5.33 2.123,12.807 1.86,17.208 -0.033,0.551 -10e-4,1.288 0.618,0.662 3.08,-3.115 0.702,-12.187 0.702,-12.187 -0.818,-3.544 -1.136,-8.379 -0.772,-9.529 0.364,-1.151 5.816,-7.33 10.632,-5.967 1.727,6.997 8.087,16.855 14.084,19.445 0.909,0.091 0.045,-2.272 -0.772,-3.453 1.725,-1.726 3.658,-1.808 3.658,-1.808 z"
   id="path90" />
				<path
   style="fill:#4376cf"
   d="m 664.842,332.82 c -4.089,0.545 -5.898,1.393 -9.079,2.484 -1.999,7.269 -0.613,10.54 -0.613,10.54 0,0 6.36,-2.605 10.237,-4.058 -1.241,-5.165 -0.545,-8.966 -0.545,-8.966 z"
   id="path91" />
				<path
   style="fill:#4376cf"
   d="m 676.685,313.132 c -1,3.362 -11.358,31.803 0,51.884 1.817,1.181 12.903,-4.18 12.903,-4.18 -1.363,-6.906 -6.906,-13.085 -6.906,-13.085 0,0 7.542,-16.719 7.724,-24.715 0.182,-7.996 -3.635,-8.905 -9.541,-8.905 0.394,-1.059 -3.513,-1.301 -4.18,-0.999 z"
   id="path92" />
				<path
   style="fill:#ffa18d"
   d="m 679.956,304.773 c -1.817,-4.452 -5.634,-6.33 -6.724,-6.239 -1.09,0.091 2.999,5.603 2.999,5.603 -5.634,0.545 -6.361,2.181 -6.542,2.999 -0.182,0.818 0.091,3.544 0.091,3.544 -1.636,2.272 -1.272,3.907 -0.454,5.179 0.818,1.272 1.681,10.782 1.514,15.871 -0.151,4.604 0.819,7.088 1.121,9.026 5.134,1 8.541,-2.362 8.541,-2.362 0,0 -4.271,-13.902 -6.27,-19.809 -1.363,-4.362 1.636,-8.178 2.817,-9.813 1.181,-1.637 3.543,-3.181 2.907,-3.999 z"
   id="path93" />
				<path
   style="fill:#ffa18d"
   d="m 678.866,332.305 c 0,0 5.179,0.818 6.452,2.908 1.272,2.09 1.03,5.846 0.121,7.845 -1.817,1.999 -2.847,1.272 -3.816,-1.878 -0.383,-1.244 -1.575,-3.786 -1.575,-3.786 z"
   id="path94" />
				<g
   id="g95">
					<path
   style="fill:#18252d"
   d="m 675.623,299.877 c -0.266,-0.202 -2.398,-1.11 -2.272,-0.864 0.315,0.614 0.966,1.157 1.444,1.642 1.007,1.02 1.532,1.835 1.826,3.267 0.038,0.184 -0.05,0.405 -0.254,0.447 -1.695,0.35 -3.13,1.053 -4.678,1.807 -1.484,0.722 -1.19,2.256 -1.56,3.599 -0.124,0.451 -0.825,0.259 -0.701,-0.193 0.336,-1.226 0.156,-2.435 1.017,-3.445 0.609,-0.715 1.83,-1.062 2.64,-1.468 0.998,-0.5 2,-0.777 3.088,-1.001 -0.085,0.149 -0.169,0.298 -0.254,0.447 -0.349,-1.696 -1.226,-2.495 -2.351,-3.681 -0.394,-0.416 -1.068,-1.064 -1.068,-1.697 0,-1.652 3.141,0.249 3.489,0.512 0.369,0.28 0.007,0.912 -0.366,0.628 z"
   id="path95" />
				</g>
				<g
   id="g96">
					<path
   style="fill:#18252d"
   d="m 673.091,308.227 c -0.894,1.47 -2.05,2.724 -3.089,4.089 -1.448,1.902 -0.924,3.264 -0.28,5.354 0.97,3.154 1.277,6.505 1.44,9.785 0.233,4.659 0.631,9.312 0.949,13.966 0.032,0.468 -0.695,0.465 -0.727,0 -0.327,-4.794 -0.753,-9.587 -0.969,-14.387 -0.099,-2.204 -0.348,-4.398 -0.758,-6.566 -0.344,-1.823 -1.153,-3.55 -1.433,-5.37 -0.411,-2.667 3.027,-5.244 4.24,-7.239 0.243,-0.398 0.872,-0.033 0.627,0.368 z"
   id="path96" />
				</g>
				<g
   id="g97">
					<path
   style="fill:#18252d"
   d="m 681.228,314.041 c -0.288,2.487 0.067,8.164 -3.265,8.801 0.054,-0.202 0.107,-0.405 0.16,-0.607 1.156,1.037 0.858,2.162 0.457,3.534 -0.131,0.449 -0.832,0.258 -0.701,-0.193 0.269,-0.921 0.711,-1.947 -0.27,-2.827 -0.195,-0.175 -0.104,-0.557 0.16,-0.607 2.812,-0.538 2.483,-5.957 2.732,-8.1 0.054,-0.461 0.781,-0.466 0.727,-10e-4 z"
   id="path97" />
				</g>
				<g
   id="g98">
					<path
   style="fill:#18252d"
   d="m 655.682,313.501 c -0.354,2.013 -0.739,4.015 -0.848,6.06 -0.047,0.894 -0.183,2.394 0.466,3.096 0.45,0.487 0.597,0.476 0.813,1.11 0.076,0.221 -0.051,0.549 -0.15,0.736 -0.508,0.961 -0.942,1.94 -1.292,2.97 -0.646,1.904 -0.539,3.901 -0.989,5.837 -0.073,0.314 -0.508,0.348 -0.664,0.087 -0.098,-0.164 -0.086,-0.282 -0.037,-0.462 0.123,-0.452 0.824,-0.26 0.701,0.193 -0.012,-0.033 -0.024,-0.065 -0.037,-0.098 -0.221,0.029 -0.443,0.058 -0.664,0.087 0.407,-1.75 0.354,-3.539 0.821,-5.284 0.405,-1.513 1.993,-3.569 0.778,-4.883 -0.781,-0.844 -0.494,-3.012 -0.442,-4.013 0.1,-1.891 0.514,-3.769 0.841,-5.629 0.083,-0.461 0.784,-0.265 0.703,0.193 z"
   id="path98" />
				</g>
				<g
   id="g99">
					<path
   style="fill:#18252d"
   d="m 660.426,334.018 c -2.17,0.582 -4.238,1.452 -6.361,2.181 -0.928,0.319 -1.88,0.561 -2.81,0.877 -1.04,0.353 -1.905,1.062 -2.914,1.486 -0.432,0.181 -0.619,-0.522 -0.193,-0.701 0.829,-0.348 1.527,-0.949 2.363,-1.272 0.922,-0.356 1.863,-0.632 2.81,-0.915 2.336,-0.697 4.553,-1.724 6.913,-2.356 0.452,-0.122 0.644,0.579 0.192,0.7 z"
   id="path99" />
				</g>
				<g
   id="g100">
					<path
   style="fill:#18252d"
   d="m 652.782,336.018 c -1.126,-0.385 -2.358,-0.276 -3.531,-0.243 -0.363,0.01 -1.342,0.158 -1.448,-0.375 -0.091,-0.458 0.609,-0.653 0.701,-0.193 -0.056,-0.285 0.507,-0.154 0.747,-0.159 0.304,-0.006 0.606,-0.017 0.91,-0.019 0.958,-0.008 1.898,-0.026 2.815,0.288 0.44,0.15 0.25,0.852 -0.194,0.701 z"
   id="path100" />
				</g>
				<g
   id="g101">
					<path
   style="fill:#18252d"
   d="m 683.268,347.39 c -0.817,1.125 -1.592,2.822 -3.036,3.285 -1.415,0.453 -3.002,0.415 -4.343,-0.283 -3.199,-1.663 -4.389,-5.372 -4.429,-8.82 -0.005,-0.469 0.722,-0.469 0.727,0 0.027,2.348 0.719,5.269 2.347,7.01 1.072,1.146 2.654,1.67 4.182,1.668 2.044,-0.004 2.884,-1.795 3.925,-3.228 0.273,-0.374 0.904,-0.012 0.627,0.368 z"
   id="path101" />
				</g>
				<g
   id="g102">
					<path
   style="fill:#18252d"
   d="m 682.121,335.864 c 2.114,2.321 1.764,5.429 1.742,8.344 -0.003,0.468 -0.73,0.469 -0.727,0 0.021,-2.681 0.427,-5.682 -1.529,-7.83 -0.315,-0.345 0.198,-0.861 0.514,-0.514 z"
   id="path102" />
				</g>
				<g
   id="g103">
					<path
   style="fill:#18252d"
   d="m 683.212,335.137 c 2.405,2.028 2.299,4.897 2.287,7.799 -0.002,0.469 -0.729,0.469 -0.727,0 0.011,-2.698 0.181,-5.382 -2.074,-7.285 -0.359,-0.302 0.158,-0.814 0.514,-0.514 z"
   id="path103" />
				</g>
				<g
   id="g104">
					<path
   style="fill:#18252d"
   d="m 675.125,307.061 c 0.187,-0.206 -0.724,-0.671 -0.864,-0.745 -0.571,-0.302 -1.433,-0.358 -2.054,-0.223 -0.457,0.1 -0.651,-0.601 -0.193,-0.701 0.976,-0.213 2.065,-0.03 2.926,0.469 0.619,0.359 1.323,1.026 0.699,1.714 -0.316,0.347 -0.828,-0.168 -0.514,-0.514 z"
   id="path104" />
				</g>
				<g
   id="g105">
					<path
   style="fill:#18252d"
   d="m 677.003,305.999 c -0.739,-0.71 -1.543,-0.799 -2.529,-0.802 -0.469,-10e-4 -0.469,-0.728 0,-0.727 1.186,0.004 2.161,0.168 3.043,1.015 0.339,0.325 -0.176,0.839 -0.514,0.514 z"
   id="path105" />
				</g>
				<g
   id="g106">
					<path
   style="fill:#18252d"
   d="m 670.596,310.891 c -0.734,0.052 -1.347,-0.482 -1.393,-1.211 -0.029,-0.469 0.698,-0.466 0.727,0 0.022,0.352 0.35,0.507 0.666,0.484 0.469,-0.033 0.465,0.694 0,0.727 z"
   id="path106" />
				</g>
				<g
   id="g107">
					<path
   style="fill:#18252d"
   d="m 677.032,309.634 c -2.093,2.163 -3.137,5.07 -2.633,8.066 0.438,2.599 1.597,5.162 2.273,7.718 0.566,2.138 1.598,4.111 2.281,6.214 0.598,1.84 1.102,3.711 1.625,5.574 0.127,0.452 -0.575,0.644 -0.701,0.193 -1.349,-4.812 -3.239,-9.41 -4.521,-14.226 -0.73,-2.744 -2.03,-5.13 -1.768,-8.05 0.204,-2.277 1.363,-4.386 2.929,-6.004 0.328,-0.336 0.841,0.178 0.515,0.515 z"
   id="path107" />
				</g>
				<g
   id="g108">
					<path
   style="fill:#18252d"
   d="m 659.496,344.465 c -3.355,2.681 -7.586,5.264 -11.979,5.377 -0.469,0.012 -0.468,-0.715 0,-0.727 4.146,-0.106 8.285,-2.622 11.465,-5.164 0.362,-0.289 0.88,0.222 0.514,0.514 z"
   id="path108" />
				</g>
				<path
   style="fill:#4376cf"
   d="m 677.775,464.242 c -1.304,2.134 -4.191,9.495 -6.512,11.661 -1.363,1.272 -4.301,1.332 -3.756,-0.212 -3.725,3.271 -3.816,3.635 -1,3.725 2.817,0.091 7.133,0.318 9.586,-7.951 0.273,2.726 -0.591,6.224 0.045,6.133 0.636,-0.091 1.181,-0.091 1.181,-0.091 0.002,-7.904 3.546,-10.358 0.456,-13.265 z"
   id="path109" />
				<g
   id="g110">
					<path
   style="fill:#18252d"
   d="m 666.596,375.598 c -1.261,-0.84 -2.743,-1.212 -4.119,-1.817 -0.428,-0.188 -0.058,-0.814 0.367,-0.628 1.378,0.606 2.854,0.975 4.119,1.817 0.388,0.259 0.025,0.888 -0.367,0.628 z"
   id="path110" />
				</g>
				<g
   id="g111">
					<path
   style="fill:#18252d"
   d="m 672.837,378.677 c 0.105,2.75 -0.371,5.518 -0.458,8.269 -0.09,2.886 -0.294,5.765 -0.447,8.648 -0.321,6.026 -0.459,12.008 -0.319,18.041 0.134,5.815 0.036,11.81 -0.656,17.591 -0.333,2.78 -0.431,5.503 -0.511,8.301 -0.037,1.288 -0.028,2.565 0.047,3.851 0.083,1.432 -0.229,2.694 -0.321,4.113 -0.03,0.465 -0.758,0.469 -0.727,0 0.077,-1.178 0.376,-2.315 0.351,-3.502 -0.031,-1.493 -0.113,-2.967 -0.077,-4.462 0.067,-2.794 0.146,-5.53 0.511,-8.301 0.374,-2.84 0.263,-5.721 0.548,-8.57 0.298,-2.981 0.173,-6.031 0.108,-9.021 -0.131,-6.033 -0.003,-12.015 0.319,-18.041 0.154,-2.883 0.358,-5.761 0.448,-8.648 0.086,-2.751 0.563,-5.519 0.458,-8.269 -0.019,-0.47 0.709,-0.467 0.726,0 z"
   id="path111" />
				</g>
				<g
   id="g112">
					<path
   style="fill:#18252d"
   d="m 666.659,432.953 c 0.093,1.768 -0.178,3.505 -0.27,5.267 -0.083,1.57 0.066,3.107 -0.348,4.643 -0.122,0.452 -0.823,0.26 -0.701,-0.193 0.439,-1.631 0.263,-3.323 0.35,-4.992 0.083,-1.585 0.326,-3.132 0.242,-4.725 -0.025,-0.468 0.702,-0.466 0.727,0 z"
   id="path112" />
				</g>
				<g
   id="g113">
					<path
   style="fill:#18252d"
   d="m 651.743,386.163 c -0.726,4.295 -2.17,8.436 -2.73,12.761 -0.591,4.567 0.365,9.333 1.444,13.758 1.055,4.327 2.304,8.678 3.573,12.948 0.631,2.125 1.349,4.194 1.872,6.352 0.565,2.333 1.127,4.644 2.105,6.846 0.189,0.424 -0.438,0.794 -0.628,0.366 -1.8,-4.048 -2.479,-8.533 -3.852,-12.735 -1.517,-4.643 -2.776,-9.507 -3.934,-14.252 -1.048,-4.297 -1.778,-8.863 -1.307,-13.283 0.469,-4.396 2.021,-8.604 2.756,-12.954 0.078,-0.461 0.779,-0.265 0.701,0.193 z"
   id="path113" />
				</g>
				<g
   id="g114">
					<path
   style="fill:#18252d"
   d="m 666.525,375.672 c 0.229,1.132 0.127,2.26 0.142,3.408 0.022,1.725 0.212,3.444 0.235,5.169 0.006,0.469 -0.721,0.469 -0.727,0 -0.017,-1.295 -0.103,-2.585 -0.18,-3.877 -0.088,-1.484 0.125,-3.047 -0.17,-4.507 -0.094,-0.457 0.607,-0.652 0.7,-0.193 z"
   id="path114" />
				</g>
				<g
   id="g115">
					<path
   style="fill:#18252d"
   d="m 671.965,362.187 c -2.211,0.348 -4.37,0.894 -6.62,0.904 -2.169,0.01 -4.303,-0.732 -6.295,-1.51 -0.432,-0.169 -0.244,-0.872 0.193,-0.701 1.988,0.777 3.954,1.376 6.102,1.484 2.153,0.109 4.315,-0.546 6.427,-0.879 0.458,-0.071 0.655,0.629 0.193,0.702 z"
   id="path115" />
				</g>
				<g
   id="g116">
					<path
   style="fill:#18252d"
   d="m 669.764,281.679 c 2.383,2.999 4.1,6.451 6.482,9.45 0.288,0.363 -0.222,0.881 -0.514,0.514 -2.383,-3 -4.1,-6.451 -6.482,-9.45 -0.289,-0.363 0.222,-0.881 0.514,-0.514 z"
   id="path116" />
				</g>
				<g
   id="g117">
					<path
   style="fill:#18252d"
   d="m 664.079,275.077 c -2.289,-0.904 -4.596,-0.753 -6.894,0 -0.447,0.147 -0.636,-0.556 -0.193,-0.701 2.432,-0.798 4.848,-0.961 7.281,0 0.43,0.17 0.243,0.874 -0.194,0.701 z"
   id="path117" />
				</g>
				<g
   id="g118">
					<path
   style="fill:#18252d"
   d="m 667.084,272.243 c 4.563,0.181 9.526,1.887 12.005,5.995 0.243,0.402 -0.386,0.768 -0.628,0.367 -2.344,-3.883 -7.078,-5.465 -11.377,-5.635 -0.467,-0.018 -0.469,-0.745 0,-0.727 z"
   id="path118" />
				</g>
				<g
   id="g119">
					<path
   style="fill:#18252d"
   d="m 667.907,273.347 c 2.906,0.618 5.016,2.473 7.066,4.515 0.333,0.331 -0.182,0.845 -0.514,0.514 -1.96,-1.953 -3.961,-3.737 -6.745,-4.329 -0.459,-0.096 -0.264,-0.797 0.193,-0.7 z"
   id="path119" />
				</g>
				<g
   id="g120">
					<path
   style="fill:#18252d"
   d="m 680.845,338.576 c -1.354,2.057 -3.793,2.793 -6.129,2.725 -0.468,-0.013 -0.469,-0.74 0,-0.727 2.059,0.06 4.293,-0.53 5.502,-2.364 0.256,-0.39 0.886,-0.026 0.627,0.366 z"
   id="path120" />
				</g>
				<g
   id="g121">
					<path
   style="fill:#18252d"
   d="m 665.024,332.699 c -0.011,3.094 -0.119,6.172 0.774,9.172 0.134,0.45 -0.567,0.641 -0.701,0.193 -0.911,-3.06 -0.811,-6.204 -0.8,-9.365 10e-4,-0.469 0.728,-0.469 0.727,0 z"
   id="path121" />
				</g>
				<g
   id="g122">
					<path
   style="fill:#18252d"
   d="m 677.139,462.788 c -0.012,1.133 -0.23,2.196 -0.558,3.277 -0.135,0.447 -0.837,0.256 -0.701,-0.193 0.309,-1.019 0.521,-2.015 0.532,-3.084 0.005,-0.469 0.732,-0.469 0.727,0 z"
   id="path122" />
				</g>
			</g>
			<g
   id="g158">
				<path
   style="fill:#ffa18d"
   d="m 371.464,124.282 c 0.86,2.237 1.893,6.108 1.893,6.108 l 6.625,-1.291 -1.032,-5.936 z"
   id="path123" />
				<path
   style="fill:#ffa18d"
   d="m 390.219,124.799 c -0.086,0.258 -0.516,9.98 -0.516,9.98 l 6.28,-2.495 2.495,-7.485 z"
   id="path124" />
				<path
   style="fill:#18252d"
   d="m 367.249,126.892 c 3.441,-0.114 12.618,-2.523 12.618,-2.523 -1.262,-5.277 -9.636,-32.465 -9.98,-33.611 4.933,-1.147 15.601,-0.458 15.601,-0.458 -1.492,5.391 -0.46,33.381 -1.262,36.593 4.933,0.115 14.569,-0.344 14.569,-0.344 2.065,-6.309 4.703,-29.481 7.915,-33.267 3.212,-3.786 11.93,-3.212 11.93,-3.212 1.262,-9.177 1.033,-19.157 1.033,-19.157 0,0 -23.975,-1.376 -31.202,-1.606 -7.227,-0.23 -27.76,2.753 -34.414,7.685 -6.654,4.933 -2.752,14.913 2.524,25.581 5.276,10.669 10.668,24.319 10.668,24.319 z"
   id="path125" />
				<path
   style="fill:#ffa18d"
   d="m 367.764,82.555 c 1.979,2.495 4.732,7.141 5.592,9.722 0.86,2.581 3.097,9.894 4.044,9.292 0.43,3.958 1.29,3.269 1.549,3.097 1.032,0.774 1.98,0.458 1.893,-2.094 0.257,-1.606 1.147,-3.441 0.917,-6.309 -0.23,-2.868 -5.22,-15.773 -8.661,-20.247 -2.065,1.033 -5.334,6.539 -5.334,6.539 z"
   id="path126" />
				<path
   style="fill:#ffa18d"
   d="m 418.869,82.785 c 0,3.269 -0.344,7.513 -0.344,8.144 0,0.631 6.997,1.377 9.865,1.951 2.868,0.573 4.589,-0.689 0.115,-1.779 7.112,-0.401 8.604,-0.344 8.604,-0.688 0,-0.344 -2.524,-1.434 -6.654,-1.434 -4.13,0 -3.441,-1.319 -3.441,-6.367 0,-5.047 -8.145,0.173 -8.145,0.173 z"
   id="path127" />
				<path
   style="fill:#4376cf"
   d="m 366.675,82.039 c 0,0 7.227,-4.932 8.03,-5.047 -1.606,-4.245 -5.277,-8.833 -5.162,-10.095 0.115,-1.262 8.374,-13.421 9.98,-14.798 3.212,8.718 6.309,16.175 10.324,17.207 6.998,0.229 24.089,4.015 28.448,1.492 0,6.883 0.115,13.307 0.115,13.307 l 9.751,-1.147 c 0,0 0.802,-23.974 0.229,-33.84 -0.573,-9.866 -3.097,-30.17 -29.481,-25.581 -14.339,3.097 -27.99,6.998 -35.331,22.484 -7.342,15.486 -9.751,21.337 -6.768,24.319 2.983,2.982 9.865,11.699 9.865,11.699 z"
   id="path128" />
				<g
   id="g129">
					<path
   style="fill:#18252d"
   d="m 389.703,43.066 c -0.013,0.93 -0.335,2.616 0.76,3.066 0.517,0.212 1.077,-0.431 1.389,-0.738 0.659,-0.648 1.225,-1.359 1.793,-2.085 0.27,-0.345 -0.213,-0.836 -0.487,-0.487 -0.695,0.888 -1.429,1.931 -2.368,2.59 -0.496,0.348 -0.404,-2.054 -0.4,-2.347 0.007,-0.443 -0.681,-0.443 -0.687,0.001 z"
   id="path129" />
				</g>
				<g
   id="g130">
					<path
   style="fill:#18252d"
   d="m 396.757,41.9 c 0.959,0.612 1.684,1.485 2.667,2.065 0.135,0.08 0.306,0.054 0.417,-0.054 1.347,-1.302 2.316,-2.821 3.215,-4.454 1.013,-1.84 2.02,-3.618 2.554,-5.664 0.54,-2.069 1.336,-6.643 -1.705,-7.148 -0.434,-0.072 -0.62,0.591 -0.183,0.664 2.26,0.375 1.662,3.629 1.442,5.203 -0.262,1.866 -1.031,3.516 -1.925,5.152 -0.856,1.566 -1.659,3.143 -2.759,4.558 -0.684,0.881 -0.891,1.148 -1.824,0.336 -0.511,-0.444 -0.98,-0.887 -1.552,-1.252 -0.376,-0.24 -0.721,0.356 -0.347,0.594 z"
   id="path130" />
				</g>
				<path
   style="fill:#ffa18d"
   d="m 374.246,26.289 c 0,5.047 2.18,9.636 5.736,12.045 3.556,2.409 5.048,5.047 9.98,5.047 4.932,0 11.242,-5.276 11.242,-11.93 3.441,-0.688 4.589,-7.457 1.032,-6.998 -2.868,-7.8 -9.406,-14.913 -20.877,-10.439 -6.883,4.13 -7.343,8.031 -7.113,12.275 z"
   id="path131" />
				<path
   style="fill:#18252d"
   d="m 374.217,29.042 c 2.581,3.441 11.443,3.441 14.626,-0.086 3.183,-3.527 5.248,-3.958 6.108,-2.495 0.86,1.463 1.778,4.044 3.671,4.818 0.344,0.172 1.377,-1.376 1.377,-1.376 -1.118,-2.323 0.833,-5.393 2.237,-5.45 -2.209,-7.112 -6.252,-13.565 -17.953,-11.586 -11.615,2.065 -11.099,12.476 -10.066,16.175 z"
   id="path132" />
				<g
   id="g133">
					<path
   style="fill:#18252d"
   d="m 393.402,46.335 c 0.212,1.917 1.002,3.484 1.805,5.207 1.111,2.382 2.17,4.787 3.306,7.158 1.769,3.694 3.381,8.276 6.76,10.818 0.355,0.267 0.697,-0.331 0.347,-0.594 -3.234,-2.433 -4.804,-7.038 -6.512,-10.571 -0.867,-1.793 -1.705,-3.602 -2.526,-5.416 -0.965,-2.133 -2.23,-4.241 -2.492,-6.601 -0.048,-0.437 -0.737,-0.442 -0.688,-10e-4 z"
   id="path133" />
				</g>
				<g
   id="g134">
					<path
   style="fill:#18252d"
   d="m 378.393,49.606 c 0.474,0.736 0.667,1.735 0.936,2.569 0.278,0.866 0.536,1.737 0.835,2.597 0.145,0.416 0.81,0.237 0.664,-0.183 -0.342,-0.982 -0.637,-1.979 -0.956,-2.968 -0.254,-0.791 -0.432,-1.658 -0.886,-2.363 -0.238,-0.371 -0.834,-0.026 -0.593,0.348 z"
   id="path134" />
				</g>
				<g
   id="g135">
					<path
   style="fill:#18252d"
   d="m 415.341,44.614 c 0.081,5.464 0.824,10.881 2.053,16.196 1.295,5.598 0.159,11.308 1.228,16.933 0.083,0.436 0.746,0.251 0.664,-0.183 -1.028,-5.409 0.079,-10.911 -1.086,-16.3 -1.189,-5.506 -2.088,-10.993 -2.172,-16.646 -0.005,-0.443 -0.693,-0.444 -0.687,0 z"
   id="path135" />
				</g>
				<g
   id="g136">
					<path
   style="fill:#18252d"
   d="m 385.475,91.423 c 0.62,-3.851 1.461,-7.166 4.99,-9.346 3.353,-2.072 7.477,-2.307 11.283,-2.704 0.437,-0.046 0.441,-0.734 0,-0.688 -4.194,0.438 -8.393,0.798 -12.066,3.068 -3.438,2.123 -4.268,5.753 -4.87,9.488 -0.071,0.433 0.593,0.619 0.663,0.182 z"
   id="path136" />
				</g>
				<g
   id="g137">
					<path
   style="fill:#18252d"
   d="m 374.637,94.086 c 1.552,2.012 2.279,4.916 2.534,7.397 0.045,0.437 0.733,0.441 0.688,0 -0.266,-2.586 -1.004,-5.64 -2.628,-7.745 -0.267,-0.346 -0.865,-0.004 -0.594,0.348 z"
   id="path137" />
				</g>
				<g
   id="g138">
					<path
   style="fill:#18252d"
   d="m 377.241,95.036 c 0.688,3.181 1.48,6.327 1.537,9.602 0.007,0.398 0.555,0.457 0.676,0.091 0.019,-0.057 0.038,-0.115 0.057,-0.172 0.14,-0.422 -0.525,-0.602 -0.664,-0.183 -0.019,0.057 -0.038,0.115 -0.057,0.172 0.226,0.031 0.451,0.061 0.676,0.091 -0.058,-3.333 -0.861,-6.545 -1.561,-9.785 -0.094,-0.433 -0.758,-0.249 -0.664,0.184 z"
   id="path138" />
				</g>
				<g
   id="g139">
					<path
   style="fill:#18252d"
   d="m 379.019,94.577 c 0.396,1.793 0.99,3.386 1.192,5.243 0.147,1.351 0.641,3.166 0.299,4.497 -0.11,0.43 0.554,0.613 0.664,0.183 0.375,-1.46 -0.165,-3.195 -0.275,-4.68 -0.143,-1.93 -0.807,-3.566 -1.217,-5.426 -0.095,-0.433 -0.759,-0.25 -0.663,0.183 z"
   id="path139" />
				</g>
				<g
   id="g140">
					<path
   style="fill:#18252d"
   d="m 380.395,92.398 c 0.284,1.171 0.732,2.246 0.946,3.441 0.239,1.336 0.245,2.686 0.247,4.038 10e-4,0.444 0.689,0.444 0.688,0 -0.001,-1.23 0.021,-2.487 -0.184,-3.705 -0.232,-1.377 -0.706,-2.614 -1.032,-3.958 -0.106,-0.43 -0.769,-0.248 -0.665,0.184 z"
   id="path140" />
				</g>
				<path
   style="fill:#4376cf"
   d="m 365.642,81.581 c 0.803,-2.122 5.333,-5.334 9.922,-6.367 1.262,1.893 2.181,2.982 2.639,3.097 -5.22,2.466 -9.407,4.875 -10.726,6.022 -0.229,0.058 -1.835,-2.752 -1.835,-2.752 z"
   id="path141" />
				<path
   style="fill:#4376cf"
   d="m 417.836,82.297 c 2.323,0 9.55,-0.344 12.131,-1.204 0.344,0.946 0.086,3.269 -0.086,3.613 -0.172,0.344 -7.915,1.893 -12.217,1.291 0,-0.86 0.172,-3.7 0.172,-3.7 z"
   id="path142" />
				<path
   style="fill:#4376cf"
   d="m 389.674,129.53 c -1.893,0.172 -1.951,0.688 -2.008,3.441 -0.057,2.753 -2.294,5.851 -5.62,9.235 -3.326,3.384 -0.344,3.671 3.154,1.147 3.499,-2.524 8.316,-7.227 8.316,-7.227 0,0 -0.057,1.376 0.287,1.319 0.344,-0.057 3.269,-2.237 3.613,-2.925 0.344,-0.688 0.517,-3.958 0.287,-4.99 -0.23,-1.032 -2.982,0.459 -5.85,2.409 -0.974,-1.949 -1.319,-2.409 -2.179,-2.409 z"
   id="path143" />
				<path
   style="fill:#4376cf"
   d="m 373.681,126.859 c -1.881,-0.268 -2.056,0.222 -2.745,2.887 -0.688,2.666 -3.576,5.168 -7.592,7.696 -4.014,2.529 -1.178,3.494 2.807,1.841 3.984,-1.652 9.755,-5.122 9.755,-5.122 0,0 -0.372,1.326 -0.023,1.35 0.348,0.024 3.695,-1.426 4.189,-2.017 0.493,-0.59 0.413,-3.996 0.427,-5.053 0.014,-1.058 -2.009,0.025 -5.249,1.263 -0.502,-2.121 -0.731,-2.647 -1.569,-2.845 z"
   id="path144" />
				<g
   id="g145">
					<path
   style="fill:#18252d"
   d="m 402.092,50.379 c 1.562,0.054 3.086,-0.082 4.617,-0.395 1.45,-0.297 2.697,-1.186 4.164,-1.425 0.438,-0.071 0.251,-0.734 -0.183,-0.663 -1.273,0.207 -2.406,0.871 -3.613,1.291 -1.548,0.537 -3.363,0.56 -4.985,0.504 -0.444,-0.016 -0.442,0.672 0,0.688 z"
   id="path145" />
				</g>
				<g
   id="g146">
					<path
   style="fill:#18252d"
   d="m 401.76,50.212 c 0.172,1.224 0.71,2.403 1.179,3.539 0.43,1.042 0.852,2.081 1.523,2.996 0.259,0.354 0.857,0.011 0.594,-0.347 -0.711,-0.971 -1.144,-2.081 -1.6,-3.187 -0.422,-1.023 -0.878,-2.083 -1.032,-3.183 -0.062,-0.439 -0.725,-0.252 -0.664,0.182 z"
   id="path146" />
				</g>
				<g
   id="g147">
					<path
   style="fill:#18252d"
   d="m 404.414,56.87 c 1.072,0.699 2.121,1.128 3.364,1.404 0.776,0.172 1.835,0.491 2.575,0.059 0.383,-0.223 0.037,-0.818 -0.347,-0.594 -0.654,0.381 -1.815,-0.079 -2.498,-0.229 -1.01,-0.222 -1.884,-0.672 -2.747,-1.234 -0.374,-0.243 -0.718,0.353 -0.347,0.594 z"
   id="path147" />
				</g>
				<g
   id="g148">
					<path
   style="fill:#18252d"
   d="m 410.535,48.405 c 0.264,1.19 0.682,2.308 1.214,3.403 0.431,0.887 1.118,2.113 1.285,3.112 0.169,-0.13 0.337,-0.259 0.506,-0.389 -0.03,-0.021 -0.06,-0.041 -0.09,-0.062 -0.366,-0.253 -0.709,0.343 -0.347,0.594 0.03,0.021 0.059,0.041 0.089,0.062 0.275,0.191 0.55,-0.122 0.506,-0.389 -0.132,-0.789 -0.641,-1.704 -0.96,-2.442 -0.586,-1.356 -1.216,-2.618 -1.539,-4.073 -0.096,-0.432 -0.759,-0.248 -0.664,0.184 z"
   id="path148" />
				</g>
				<g
   id="g149">
					<path
   style="fill:#18252d"
   d="m 413.324,54.334 c -0.604,0.862 -1.229,1.655 -1.98,2.394 -0.196,0.193 -0.401,0.376 -0.607,0.558 -0.131,0.116 -0.557,0.59 -0.729,0.577 -0.443,-0.034 -0.44,0.655 0,0.688 0.538,0.041 1.215,-0.773 1.564,-1.093 0.909,-0.833 1.641,-1.77 2.346,-2.777 0.255,-0.364 -0.342,-0.707 -0.594,-0.347 z"
   id="path149" />
				</g>
				<g
   id="g150">
					<path
   style="fill:#18252d"
   d="m 403.295,51.966 c 1.034,0.773 2.219,1.716 3.546,1.887 0.864,0.111 1.402,-0.314 2.023,-0.882 0.482,-0.441 2.514,-2.49 1.402,-3.147 -0.382,-0.226 -0.729,0.369 -0.347,0.594 0.204,0.121 -1.545,2.069 -1.732,2.24 -1.422,1.301 -3.321,-0.371 -4.546,-1.286 -0.355,-0.266 -0.697,0.332 -0.346,0.594 z"
   id="path150" />
				</g>
				<g
   id="g151">
					<path
   style="fill:#18252d"
   d="m 391.252,69.736 c 1.996,0.048 3.921,0.485 5.875,0.849 2.007,0.374 4.054,0.528 6.069,0.86 1.935,0.318 3.886,0.7 5.759,1.286 1.319,0.412 2.594,0.828 3.982,0.606 0.438,-0.07 0.251,-0.733 -0.183,-0.664 -1.711,0.274 -3.437,-0.604 -5.067,-1.012 -1.828,-0.458 -3.685,-0.788 -5.546,-1.078 -1.804,-0.281 -3.625,-0.437 -5.421,-0.772 -1.824,-0.339 -3.608,-0.719 -5.469,-0.764 -0.444,-0.01 -0.442,0.679 0.001,0.689 z"
   id="path151" />
				</g>
				<g
   id="g152">
					<path
   style="fill:#18252d"
   d="m 402.694,71.285 c 1.011,0.035 1.928,0.468 2.926,0.589 1.217,0.147 2.467,0.161 3.693,0.208 1.148,0.044 2.307,-0.166 3.453,-0.22 0.934,-0.044 1.829,0.011 2.753,-0.16 0.436,-0.08 0.251,-0.744 -0.183,-0.663 -1.896,0.35 -4.092,0.321 -6.023,0.355 -1.022,0.018 -2.068,-0.095 -3.088,-0.157 -1.22,-0.074 -2.318,-0.598 -3.531,-0.64 -0.444,-0.016 -0.442,0.673 0,0.688 z"
   id="path152" />
				</g>
				<g
   id="g153">
					<path
   style="fill:#18252d"
   d="m 391.579,90.666 c -0.721,5.365 -1.017,10.79 -1.393,16.188 -0.366,5.242 -1.03,10.544 -1.142,15.794 -0.009,0.444 0.679,0.443 0.688,0 0.107,-5.027 0.745,-10.103 1.095,-15.122 0.388,-5.559 0.674,-11.152 1.416,-16.678 0.058,-0.433 -0.605,-0.62 -0.664,-0.182 z"
   id="path153" />
				</g>
				<g
   id="g154">
					<path
   style="fill:#18252d"
   d="m 368.752,86.49 c 0.363,1.735 0.899,3.427 1.262,5.162 0.091,0.435 0.754,0.25 0.664,-0.183 -0.363,-1.735 -0.899,-3.427 -1.262,-5.162 -0.091,-0.434 -0.755,-0.25 -0.664,0.183 z"
   id="path154" />
				</g>
				<g
   id="g155">
					<path
   style="fill:#18252d"
   d="m 356.283,95.52 c 2.238,4.812 4.7,9.515 6.914,14.338 1.135,2.473 2.171,4.988 3.082,7.552 0.352,0.991 0.668,1.981 1.087,2.945 0.37,0.85 0.957,1.799 1.103,2.739 0.141,-0.141 0.282,-0.282 0.423,-0.424 -0.02,-0.004 -0.041,-0.007 -0.062,-0.01 -0.434,-0.074 -0.62,0.59 -0.183,0.664 0.021,0.004 0.041,0.007 0.062,0.011 0.275,0.046 0.465,-0.152 0.423,-0.423 -0.091,-0.59 -0.415,-1.18 -0.644,-1.723 -0.552,-1.315 -1.081,-2.612 -1.547,-3.962 -0.837,-2.427 -1.841,-4.795 -2.889,-7.137 -2.254,-5.037 -4.849,-9.914 -7.176,-14.917 -0.186,-0.402 -0.78,-0.053 -0.593,0.347 z"
   id="path155" />
				</g>
				<g
   id="g156">
					<path
   style="fill:#18252d"
   d="m 366.117,81.27 c 0.329,-1.37 2.477,-2.306 3.585,-3.028 1.615,-1.053 3.411,-1.521 5.118,-2.358 0.399,-0.195 0.05,-0.789 -0.347,-0.594 -0.995,0.488 -2.121,0.697 -3.097,1.205 -1.044,0.542 -2.021,1.162 -3,1.811 -1.059,0.702 -2.598,1.435 -2.922,2.783 -0.104,0.43 0.559,0.613 0.663,0.181 z"
   id="path156" />
				</g>
				<g
   id="g157">
					<path
   style="fill:#18252d"
   d="m 369.486,67.116 c -2.097,-1.232 -4.364,-1.974 -6.798,-2.112 -0.444,-0.025 -0.441,0.663 0,0.688 2.315,0.131 4.457,0.846 6.451,2.018 0.383,0.226 0.73,-0.369 0.347,-0.594 z"
   id="path157" />
				</g>
			</g>
			<g
   id="g194">
				<ellipse
   style="opacity:0.42;fill:#ffa18d"
   cx="115.672"
   cy="469.271"
   rx="64.195"
   ry="6.9660001"
   id="ellipse158" />
				<path
   style="fill:#ff886f"
   d="m 51.477,467.497 c -1.368,-9.574 0,-36.7 0,-39.775 0,-3.075 1.845,-6.356 10.046,-6.356 8.201,0 108.458,0 108.458,0 4.51,0 10.456,2.255 9.841,10.046 -0.615,7.791 0.41,32.189 -0.205,34.649 -0.615,2.46 -4.716,2.255 -10.456,2.87 -5.741,0.615 -104.563,0.205 -109.073,0.205 -4.511,0.002 -8.406,-0.204 -8.611,-1.639 z"
   id="path158" />
				<g
   id="g193">
					<path
   style="fill:#18252d"
   d="m 86.096,408.791 c 0.511,7.154 2.939,14.819 18.652,16.225 15.713,1.405 40.496,-1.279 44.84,-4.472 4.344,-3.193 6.261,-15.203 -7.026,-16.863 -15.586,-1.405 -25.039,-2.683 -25.039,-2.683 z"
   id="path159" />
					<path
   style="fill:#ffa18d"
   d="m 150.609,395.889 c 2.363,0.192 4.982,0.702 6.324,1.469 1.341,0.767 9.197,5.813 9.07,15.394 -0.127,1.597 -0.767,2.235 -1.086,1.98 -0.702,0.639 -2.236,-1.277 -2.938,-2.555 -0.702,-1.278 -4.407,-8.495 -12.456,-8.623 -1.085,-1.406 1.086,-7.665 1.086,-7.665 z"
   id="path160" />
					<path
   style="fill:#ffa18d"
   d="m 136.62,364.717 c 0.128,-2.108 0.831,-9.39 5.877,-9.709 5.046,-0.319 5.669,0.08 5.669,0.08 -0.064,-1.597 2.012,-4.679 3.21,-4.551 2.363,0.252 3.002,7.984 0.255,8.303 -2.747,0.319 -6.515,1.214 -6.515,1.214 -0.255,4.407 -0.639,6.77 -0.639,6.77 z"
   id="path161" />
					<path
   style="fill:#ffa18d"
   d="m 127.869,329.203 c 3.577,-6.898 18.269,-6.898 21.335,0.256 3.066,7.154 -0.331,9.409 1.533,9.965 2.411,0.718 3.082,1.053 3.082,1.053 L 150.737,343 c 0,0 2.555,16.736 -12.392,10.604 -4.727,6.259 -9.964,10.092 -9.964,10.092 l -5.877,-9.709 3.194,-6.005 c 0,0 -7.155,-8.176 2.171,-18.779 z"
   id="path162" />
					<path
   style="fill:none;stroke:#000000;stroke-miterlimit:10"
   d="m 149.843,335.111 c -1.102,0.144 -1.725,1.916 -1.198,5.461 0.527,3.545 2.778,0.575 2.922,-1.868 0.144,-2.443 -0.287,-3.688 -1.724,-3.593 z"
   id="path163" />
					<g
   id="g164">
						<path
   style="fill:#18252d"
   d="m 132.134,349.658 c 0.841,1.082 2.014,1.755 3.113,2.541 1.208,0.863 2.555,1.74 3.954,2.253 0.465,0.171 0.663,-0.57 0.203,-0.74 -1.187,-0.435 -2.336,-1.2 -3.38,-1.903 -1.176,-0.792 -2.472,-1.564 -3.35,-2.693 -0.301,-0.389 -0.84,0.157 -0.54,0.542 z"
   id="path164" />
					</g>
					<path
   style="fill:#f05448"
   d="m 124.165,350.777 c 4.695,-1.261 5.238,-3.88 5.174,-4.791 -3.258,-2.683 -3.023,-7.073 -0.096,-7.569 2.826,-0.479 4.407,3.066 4.599,5.749 1.294,0.527 2.252,0.655 2.204,0.367 -0.048,-0.287 -1.214,-2.731 0.51,-5.366 1.725,-2.635 3.273,-3.673 2.124,-6.164 -1.15,-2.491 -2.491,-3.785 0.671,-5.078 3.162,-1.294 10.875,-2.587 11.258,-6.132 -0.048,-1.485 -2.299,-1.677 -3.641,-0.862 3.401,-2.635 -0.048,-5.892 -5.414,-2.252 3.354,-4.503 -1.485,-6.084 -3.162,-4.216 -1.677,1.868 -2.347,5.509 -5.845,5.174 -3.497,-0.335 -12.264,0.383 -10.348,9.533 -4.982,2.874 -6.707,8.527 -2.874,13.893 3.834,5.366 5.606,5.223 4.84,7.714 z"
   id="path165" />
					<g
   id="g166">
						<path
   style="fill:#18252d"
   d="m 132.453,340.046 c 5.413,-0.08 10.827,-0.159 16.24,-0.239 0.494,-0.008 0.494,-0.774 0,-0.767 -5.413,0.08 -10.827,0.159 -16.24,0.24 -0.494,0.007 -0.495,0.773 0,0.766 z"
   id="path166" />
					</g>
					<path
   style="fill:#4376cf"
   d="m 121.738,354.37 c -34.078,21.558 -37.991,41.922 -35.802,56.242 9.198,2.683 34.493,-8.527 34.493,-8.527 0.096,2.395 1.245,4.822 4.982,4.791 11.306,-0.096 22.708,-3.449 22.708,-3.449 l 1.15,-7.665 -4.024,0.096 c 0,0 0.862,-17.151 -0.287,-27.019 -1.533,0.383 -8.527,-1.246 -8.527,-1.246 -0.383,2.491 -1.629,8.336 -1.629,8.336 -0.287,-4.024 -2.204,-11.018 -4.024,-13.797 -1.822,-2.78 -6.676,-7.762 -9.04,-7.762 z"
   id="path167" />
					<path
   style="fill:#4376cf"
   d="m 123.591,351.815 c -0.958,0.447 -3.003,1.98 -2.939,2.299 0.064,0.319 8.369,8.176 10.412,13.222 2.108,-2.747 2.235,-2.938 2.235,-3.258 -0.383,-1.596 -3.768,-9.069 -9.708,-12.263 z"
   id="path168" />
					<path
   style="fill:#4376cf"
   d="m 135.918,364.079 c -0.255,1.533 -1.149,4.47 -0.702,4.726 0.447,0.256 11.114,1.662 11.497,1.406 0.383,-0.256 0.51,-4.407 0.064,-4.599 -0.447,-0.192 -10.732,-2.044 -10.859,-1.533 z"
   id="path169" />
					<g
   id="g170">
						<path
   style="fill:#18252d"
   d="m 125.309,364.417 c 4.802,1.357 6.458,7.052 7.167,11.389 1.027,6.287 1.536,12.562 2.037,18.901 0.256,0 0.511,0 0.766,0 -0.026,-0.207 -0.07,-0.305 -0.208,-0.463 -0.326,-0.373 -0.866,0.171 -0.542,0.542 -0.006,-0.026 -0.011,-0.053 -0.016,-0.079 0.06,0.478 0.806,0.501 0.766,0 -0.559,-7.06 -1.191,-14.037 -2.385,-21.028 -0.687,-4.02 -3.201,-8.82 -7.382,-10.002 -0.476,-0.135 -0.678,0.605 -0.203,0.74 z"
   id="path170" />
					</g>
					<g
   id="g171">
						<path
   style="fill:#18252d"
   d="m 113.831,376.592 c -0.424,1.948 0.181,3.866 0.642,5.761 0.661,2.72 1.478,5.397 2.104,8.126 0.569,2.475 1.088,4.958 1.753,7.411 0.648,2.392 1.548,4.391 2.63,6.592 0.218,0.444 0.879,0.055 0.662,-0.386 -2.081,-4.234 -3.127,-8.548 -4.153,-13.147 -0.509,-2.279 -1.123,-4.524 -1.732,-6.778 -0.608,-2.249 -1.673,-5.046 -1.166,-7.374 0.104,-0.483 -0.635,-0.688 -0.74,-0.205 z"
   id="path171" />
					</g>
					<g
   id="g172">
						<path
   style="fill:#18252d"
   d="m 119.568,400.412 c -1.157,-0.823 -3.02,-0.82 -4.377,-1.115 -2.132,-0.465 -4.267,-0.811 -6.452,-0.853 -0.494,-0.01 -0.494,0.757 0,0.766 2.118,0.041 4.179,0.391 6.248,0.826 1.25,0.263 3.133,0.284 4.194,1.038 0.404,0.287 0.786,-0.378 0.387,-0.662 z"
   id="path172" />
					</g>
					<g
   id="g173">
						<path
   style="fill:#18252d"
   d="m 107.404,403.029 c 1.981,-0.62 4.063,-0.792 6.036,-1.437 0.468,-0.153 0.268,-0.894 -0.204,-0.74 -1.973,0.646 -4.056,0.817 -6.036,1.437 -0.47,0.148 -0.27,0.888 0.204,0.74 z"
   id="path173" />
					</g>
					<g
   id="g174">
						<path
   style="fill:#18252d"
   d="m 134.411,394.241 c -1.73,0.341 -3.078,1.425 -4.596,2.246 -0.907,0.49 -2.477,1.077 -2.857,2.142 -0.167,0.466 0.574,0.665 0.739,0.204 0.288,-0.807 2.064,-1.446 2.766,-1.825 1.382,-0.746 2.571,-1.715 4.153,-2.027 0.483,-0.096 0.278,-0.835 -0.205,-0.74 z"
   id="path174" />
					</g>
					<g
   id="g175">
						<path
   style="fill:#18252d"
   d="m 131.846,396.352 c -1.296,1.097 -2.583,2.204 -3.833,3.354 0.181,0.18 0.361,0.361 0.542,0.542 0.064,-0.064 0.128,-0.128 0.192,-0.192 0.35,-0.35 -0.192,-0.891 -0.542,-0.542 -0.064,0.064 -0.128,0.128 -0.192,0.192 -0.351,0.351 0.179,0.875 0.542,0.542 1.25,-1.149 2.537,-2.256 3.833,-3.353 0.378,-0.321 -0.167,-0.86 -0.542,-0.543 z"
   id="path175" />
					</g>
					<g
   id="g176">
						<path
   style="fill:#18252d"
   d="m 134.507,394.885 c 3.938,1.331 7.996,0.905 12.078,0.876 0.494,-0.004 0.494,-0.77 0,-0.767 -4.011,0.028 -8.001,0.461 -11.875,-0.849 -0.469,-0.158 -0.669,0.582 -0.203,0.74 z"
   id="path176" />
					</g>
					<g
   id="g177">
						<path
   style="fill:#18252d"
   d="m 134.91,374.484 c -0.757,2.275 -1.127,4.638 -1.533,6.994 -0.083,0.484 0.655,0.69 0.739,0.204 0.406,-2.356 0.776,-4.72 1.533,-6.994 0.156,-0.47 -0.584,-0.67 -0.739,-0.204 z"
   id="path177" />
					</g>
					<path
   style="fill:#4376cf"
   d="m 151.056,395.505 c 0.256,-0.831 -2.618,-1.022 -3.96,-0.895 -1.341,0.128 -1.725,5.557 -0.448,9.581 0.256,0.255 4.152,-10e-4 4.152,-0.32 -0.51,-2.042 -0.192,-5.427 0.256,-8.366 z"
   id="path178" />
					<g
   id="g179">
						<path
   style="fill:#18252d"
   d="m 160.563,406.94 c 0.704,1.298 3.567,4.205 2.118,5.654 -0.35,0.35 0.192,0.892 0.542,0.542 0.016,-0.017 0.033,-0.033 0.049,-0.049 0.35,-0.35 -0.192,-0.892 -0.542,-0.542 -0.016,0.017 -0.033,0.033 -0.05,0.049 0.181,0.181 0.361,0.362 0.542,0.542 1.967,-1.966 -1.066,-4.862 -1.999,-6.582 -0.234,-0.435 -0.896,-0.048 -0.66,0.386 z"
   id="path179" />
					</g>
					<g
   id="g180">
						<path
   style="fill:#18252d"
   d="m 162.032,406.621 c 1.479,2.235 3.058,5.063 2.261,7.817 -0.138,0.476 0.602,0.677 0.739,0.204 0.857,-2.96 -0.741,-5.994 -2.338,-8.407 -0.272,-0.41 -0.936,-0.027 -0.662,0.386 z"
   id="path180" />
					</g>
					<g
   id="g181">
						<path
   style="fill:#18252d"
   d="m 163.079,405.124 c 0.679,1.615 1.981,3.151 2.158,4.945 0.048,0.487 0.815,0.492 0.767,0 -0.188,-1.902 -1.468,-3.443 -2.185,-5.148 -0.189,-0.449 -0.931,-0.252 -0.74,0.203 z"
   id="path181" />
					</g>
					<g
   id="g182">
						<path
   style="fill:#18252d"
   d="m 87.277,414.444 c 1.588,0.166 3.391,0.233 4.942,-0.204 0.854,-0.241 1.249,-0.553 2.048,0.475 0.54,0.695 1.221,1.26 1.894,1.823 1.273,1.065 2.695,1.99 4.12,2.835 1.216,0.72 2.147,0.881 2.286,2.536 0.07,0.835 0.154,1.666 0.23,2.5 0.045,0.488 0.812,0.493 0.767,0 -0.134,-1.469 0.052,-3.291 -0.828,-4.544 -0.392,-0.559 -1.518,-0.838 -2.068,-1.154 -1.051,-0.603 -2.053,-1.299 -3.038,-2.002 -1.128,-0.805 -2.192,-1.713 -3.034,-2.814 -0.213,-0.278 -0.525,-0.647 -0.9,-0.695 -0.88,-0.112 -1.703,0.358 -2.573,0.459 -1.283,0.148 -2.563,0.155 -3.846,0.02 -0.491,-0.053 -0.487,0.714 0,0.765 z"
   id="path182" />
					</g>
					<g
   id="g183">
						<path
   style="fill:#18252d"
   d="m 95.818,411.863 c 0.36,0.886 1.062,1.52 1.727,2.181 0.351,0.349 0.893,-0.193 0.542,-0.542 -0.555,-0.551 -1.228,-1.1 -1.53,-1.843 -0.183,-0.451 -0.925,-0.254 -0.739,0.204 z"
   id="path183" />
					</g>
					<g
   id="g184">
						<path
   style="fill:#18252d"
   d="m 98.731,415.404 c 0.353,0.658 0.946,1.186 1.575,1.575 0.421,0.261 0.806,-0.402 0.387,-0.662 -0.521,-0.323 -1.007,-0.755 -1.3,-1.299 -0.234,-0.436 -0.895,-0.049 -0.662,0.386 z"
   id="path184" />
					</g>
					<g
   id="g185">
						<path
   style="fill:#18252d"
   d="m 102.815,418.548 c 0.417,0.409 0.878,0.786 1.419,1.018 0.449,0.193 0.84,-0.467 0.387,-0.662 -0.486,-0.209 -0.888,-0.53 -1.264,-0.898 -0.353,-0.347 -0.895,0.195 -0.542,0.542 z"
   id="path185" />
					</g>
					<g
   id="g186">
						<path
   style="fill:#18252d"
   d="m 106.552,421.422 c 0.586,0.478 1.224,0.869 1.898,1.21 0.44,0.222 0.828,-0.439 0.387,-0.662 -0.613,-0.309 -1.21,-0.655 -1.743,-1.09 -0.38,-0.31 -0.925,0.229 -0.542,0.542 z"
   id="path186" />
					</g>
					<g
   id="g187">
						<path
   style="fill:#18252d"
   d="m 110.745,423.916 c 0.677,0.281 1.383,0.466 2.108,0.575 0.483,0.073 0.691,-0.665 0.204,-0.74 -0.724,-0.109 -1.431,-0.293 -2.108,-0.575 -0.456,-0.189 -0.654,0.553 -0.204,0.74 z"
   id="path187" />
					</g>
					<g
   id="g188">
						<path
   style="fill:#18252d"
   d="m 109.586,381.565 c -2.88,3.178 -5.139,7.173 -6.974,11.032 -1.851,3.891 -2.255,8.871 -2.463,13.129 -0.016,0.324 0.436,0.522 0.654,0.271 0.162,-0.186 0.209,-0.285 0.24,-0.527 0.061,-0.49 -0.706,-0.484 -0.767,0 -0.005,-0.005 -0.01,-0.01 -0.015,-0.015 0.218,0.091 0.436,0.18 0.654,0.271 0.216,-4.397 0.72,-9.296 2.631,-13.314 1.707,-3.589 3.911,-7.357 6.582,-10.304 0.33,-0.366 -0.21,-0.909 -0.542,-0.543 z"
   id="path188" />
					</g>
					<g
   id="g189">
						<path
   style="fill:#18252d"
   d="m 141.413,355.946 c 2.317,-1.392 6.075,-0.466 8.621,-0.427 0.494,0.007 0.494,-0.759 0,-0.767 -2.742,-0.042 -6.5,-0.975 -9.008,0.531 -0.423,0.255 -0.038,0.918 0.387,0.663 z"
   id="path189" />
					</g>
					<g
   id="g190">
						<path
   style="fill:#18252d"
   d="m 150.404,354.903 c 0.238,-0.652 0.524,-1.282 0.671,-1.964 0.104,-0.482 -0.635,-0.687 -0.739,-0.204 -0.147,0.681 -0.433,1.312 -0.671,1.964 -0.17,0.466 0.571,0.664 0.739,0.204 z"
   id="path190" />
					</g>
					<g
   id="g191">
						<path
   style="fill:#18252d"
   d="m 150.615,354.692 c 0.401,-0.152 0.823,-0.189 1.193,-0.422 0.417,-0.263 0.033,-0.926 -0.387,-0.662 -0.308,0.195 -0.674,0.217 -1.01,0.344 -0.457,0.174 -0.259,0.915 0.204,0.74 z"
   id="path191" />
					</g>
					<g
   id="g192">
						<path
   style="fill:#18252d"
   d="m 149.937,355.467 c 0.373,0.163 0.738,0.345 1.102,0.527 0.441,0.22 0.829,-0.441 0.387,-0.662 -0.365,-0.182 -0.729,-0.364 -1.102,-0.527 -0.449,-0.196 -0.839,0.464 -0.387,0.662 z"
   id="path192" />
					</g>
				</g>
			</g>
		</g>
	</g>
</g>
</svg>
